<?xml version="1.0" encoding="utf-8"?>
<!-- Generator: Adobe Illustrator 21.0.1, SVG Export Plug-In . SVG Version: 6.00 Build 0)  -->
<svg version="1.1" id="Слой_1" xmlns="http://www.w3.org/2000/svg" xmlns:xlink="http://www.w3.org/1999/xlink" x="0px" y="0px"
	 viewBox="0 0 64 64" style="enable-background:new 0 0 64 64;" xml:space="preserve">
<style type="text/css">
	.st0{fill:#003399;}
</style>
<path class="st0" d="M32,21.8c5.6,0,10.2,4.6,10.2,10.2S37.6,42.2,32,42.2S21.8,37.6,21.8,32S26.4,21.8,32,21.8 M32,20.8
	c-6.2,0-11.2,5-11.2,11.2s5,11.2,11.2,11.2s11.2-5,11.2-11.2S38.2,20.8,32,20.8z"/>
<path class="st0" d="M25.9,2c0.3,3.1,2.9,5.5,6.1,5.5c3.1,0,5.7-2.4,6.1-5.5c3.8,0.8,7.5,2.3,10.8,4.5c-2.2,2.4-2.1,6.1,0.2,8.4
	c1.1,1.2,2.7,1.8,4.3,1.8c1.5,0,3-0.6,4.1-1.6c2.2,3.3,3.7,7,4.5,10.9c-3.1,0.3-5.5,2.9-5.5,6.1c0,3.1,2.4,5.7,5.5,6.1
	c-0.8,3.9-2.3,7.5-4.5,10.8c-1.1-1-2.6-1.6-4.1-1.6c-1.6,0-3.2,0.6-4.3,1.8c-2.3,2.3-2.4,6-0.2,8.4c-3.3,2.2-7,3.7-10.8,4.5
	c-0.3-3.1-2.9-5.5-6.1-5.5s-5.7,2.4-6.1,5.5c-3.9-0.8-7.5-2.3-10.9-4.5c2.2-2.4,2.1-6.1-0.2-8.4c-1.2-1.2-2.7-1.8-4.3-1.8
	c-1.5,0-3,0.6-4.1,1.6C4.3,45.5,2.8,41.9,2,38.1c3.1-0.3,5.5-2.9,5.5-6.1c0-3.1-2.4-5.7-5.5-6.1c0.8-3.9,2.3-7.5,4.5-10.8
	c1.1,1,2.6,1.5,4.1,1.5c1.6,0,3.2-0.6,4.3-1.8c2.3-2.3,2.4-6,0.2-8.4C18.4,4.3,22.1,2.8,25.9,2 M38.1,0c-0.4,0-0.8,0.1-1.2,0.4
	c-0.5,0.3-0.7,0.8-0.8,1.4c-0.2,2.1-2,3.7-4.1,3.7s-3.9-1.6-4.1-3.7c-0.1-0.6-0.3-1.1-0.8-1.4C26.8,0.1,26.4,0,25.9,0h-0.4
	c-4.1,0.8-8,2.4-11.6,4.8c-0.5,0.3-0.8,0.8-0.9,1.4c-0.1,0.6,0.1,1.2,0.5,1.6c1.4,1.6,1.4,4.1-0.2,5.6c-0.8,0.8-1.8,1.2-2.9,1.2
	c-1,0-2-0.4-2.7-1c-0.4-0.3-0.8-0.5-1.3-0.5H6.1C5.5,13.2,5,13.5,4.7,14c-2.4,3.5-4,7.4-4.8,11.5c-0.1,0.6,0,1.1,0.4,1.6
	c0.3,0.5,0.8,0.7,1.4,0.8c2.1,0.2,3.7,2,3.7,4.1s-1.6,3.9-3.7,4.1c-0.6,0.1-1.1,0.3-1.4,0.8s-0.5,1-0.4,1.6c0.8,4.1,2.4,8,4.8,11.5
	c0.3,0.5,0.8,0.8,1.4,0.9h0.3c0.5,0,1-0.2,1.3-0.5c0.8-0.7,1.8-1.1,2.8-1.1c1.1,0,2.1,0.4,2.9,1.2c1.6,1.6,1.6,4,0.1,5.7
	c-0.4,0.4-0.6,1-0.5,1.6s0.4,1.1,0.9,1.4c3.6,2.4,7.4,4,11.6,4.8h0.4c0.4,0,0.8-0.1,1.2-0.4c0.5-0.3,0.7-0.8,0.8-1.4
	c0.2-2.1,2-3.7,4.1-3.7s3.9,1.6,4.1,3.7c0.1,0.6,0.3,1.1,0.8,1.4c0.3,0.3,0.8,0.4,1.2,0.4h0.4c4.1-0.8,8-2.4,11.5-4.8
	c0.5-0.3,0.8-0.8,0.9-1.4c0.1-0.6-0.1-1.2-0.5-1.6c-1.5-1.6-1.4-4.1,0.1-5.7c0.8-0.8,1.8-1.2,2.9-1.2c1,0,2,0.4,2.8,1.1
	c0.4,0.3,0.8,0.5,1.3,0.5h0.3c0.6-0.1,1.1-0.4,1.4-0.9c2.3-3.5,4-7.4,4.8-11.5c0.1-0.6,0-1.1-0.4-1.6c-0.3-0.5-0.8-0.7-1.4-0.8
	c-2.1-0.2-3.7-2-3.7-4.1s1.6-3.9,3.7-4.1c0.6-0.1,1.1-0.3,1.4-0.8c0.3-0.5,0.5-1,0.4-1.6c-0.8-4.1-2.4-8-4.8-11.6
	c-0.3-0.5-0.8-0.8-1.4-0.9h-0.2c-0.5,0-1,0.2-1.3,0.5c-0.8,0.7-1.7,1.1-2.8,1.1s-2.1-0.4-2.9-1.2c-1.5-1.5-1.6-4-0.1-5.7
	c0.4-0.4,0.6-1,0.5-1.6S50.6,5,50.1,4.7c-3.5-2.3-7.4-4-11.5-4.8C38.3,0,38.2,0,38.1,0z"/>
<path class="st0" d="M32,26.8c2.9,0,5.2,2.3,5.2,5.2s-2.3,5.2-5.2,5.2s-5.2-2.3-5.2-5.2S29.1,26.8,32,26.8 M32,24.8
	c-4,0-7.2,3.2-7.2,7.2s3.2,7.2,7.2,7.2s7.2-3.2,7.2-7.2S36,24.8,32,24.8z"/>
</svg>
