<?xml version="1.0" encoding="utf-8"?>
<!-- Generator: Adobe Illustrator 21.0.1, SVG Export Plug-In . SVG Version: 6.00 Build 0)  -->
<svg version="1.1" id="Слой_1" xmlns="http://www.w3.org/2000/svg" xmlns:xlink="http://www.w3.org/1999/xlink" x="0px" y="0px"
	 viewBox="0 0 26 30" style="enable-background:new 0 0 26 30;" xml:space="preserve">
<style type="text/css">
	.st0{fill:none;stroke:#00FF88;stroke-width:2;stroke-linecap:round;stroke-linejoin:round;}
	.st1{fill:#00FF88;}
	.st2{fill:#BF0B0B;}
</style>
<title>Ресурс 2</title>
<g id="Слой_2">
	<g id="Layer_1">
		<path class="st0" d="M21.6,1c0,1.9-0.7,3.7-2,5.1c-1.9-1.3-4.2-2-6.5-2c-2.3,0-4.5,0.6-6.4,1.9C5,4.9,4,3,4,1
			c-3.3,3.6-3.3,6.7-1.3,9.1c-1.1,2-1.7,4.2-1.7,6.5c0,3.3,1.2,6.4,3.5,8.8C6.7,27.7,9.8,29,13,29c3.2,0,6.3-1.3,8.4-3.6
			c2.3-2.3,3.6-5.5,3.6-8.8c0-2.2-0.5-4.4-1.6-6.3C25.4,7.6,24.8,4.5,21.6,1z"/>
		<path class="st1" d="M13.2,12.5c1,0,2,0.4,2.7,1.2c0.8,0.7,1.2,1.8,1.2,2.8c0,2.2-1.8,4-4,4c-1.1,0-2.1-0.4-2.9-1.2
			C9.4,18.6,9,17.5,9,16.5c0-1.1,0.4-2.1,1.2-2.8c0.7-0.8,1.7-1.2,2.7-1.2H13.2 M13.2,10.5h-0.3c-1.6,0-3.1,0.6-4.1,1.8
			C7.6,13.3,7,14.9,7,16.5c0,1.6,0.6,3.1,1.8,4.2c1.1,1.1,2.7,1.8,4.2,1.8c3.3,0,6-2.7,6-6c0-1.6-0.6-3.1-1.8-4.2
			C16.2,11.1,14.7,10.5,13.2,10.5L13.2,10.5z"/>
	</g>
</g>
<rect x="-1.3" y="12.9" transform="matrix(0.7774 0.629 -0.629 0.7774 12.3285 -4.8381)" class="st2" width="28.6" height="4.1"/>
<rect x="-1.3" y="12.9" transform="matrix(0.629 -0.7774 0.7774 0.629 -6.8381 15.6719)" class="st2" width="28.6" height="4.1"/>
</svg>
