<svg xmlns="http://www.w3.org/2000/svg" viewBox="0 0 49.5 37.5"><defs><style>.cls-1,.cls-2{fill:none;stroke:#00ff86;stroke-width:1.5px;}.cls-1{stroke-linecap:round;stroke-linejoin:round;}.cls-2{stroke-miterlimit:10;}</style></defs><title>Ресурс 24</title><g id="Слой_2" data-name="Слой 2"><g id="Layer_1" data-name="Layer 1"><path class="cls-1" d="M8.75,36.75h-6a2,2,0,0,1-2-2v-32a2,2,0,0,1,2-2h44a2,2,0,0,1,2,2h0"/><path class="cls-1" d="M28.75,36.75h-14a2,2,0,0,1-2-2v-26a2,2,0,0,1,2-2h32a2,2,0,0,1,2,2h0"/><rect class="cls-2" x="32.75" y="12.75" width="16" height="24" rx="2" ry="2"/></g></g></svg>