<svg xmlns="http://www.w3.org/2000/svg" viewBox="0 0 43.19 38.08"><defs><style>.cls-1{fill:#004d29;}.cls-2,.cls-3{fill:#0f8;}.cls-3{stroke:#004d29;stroke-linecap:round;stroke-miterlimit:10;stroke-width:0.46px;}</style></defs><title>Ресурс 3</title><g id="Слой_2" data-name="Слой 2"><g id="Layer_1" data-name="Layer 1"><circle class="cls-1" cx="21.59" cy="19.75" r="11.94"/><path class="cls-2" d="M9.69,5a5.65,5.65,0,0,0-5.6,5.61V28.92a5.63,5.63,0,0,0,1.65,3.95,5.51,5.51,0,0,0,4,1.61H33.54a5.48,5.48,0,0,0,3.91-1.61l0,0a5.68,5.68,0,0,0,1.61-3.91V10.63a5.71,5.71,0,0,0-1.61-4h0A5.53,5.53,0,0,0,33.54,5Zm17,25h5.38A13.44,13.44,0,0,1,30,31.91a13.81,13.81,0,0,1-2.8,1.56H25.41a5.19,5.19,0,0,0,1.29-3.4Zm-8.91,3.4H16a15.1,15.1,0,0,1-2.8-1.56,13.4,13.4,0,0,1-2.11-1.84h5.37a5.19,5.19,0,0,0,1.29,3.4Zm-.28-3.4h3.22a.51.51,0,1,0,0-1H5.1V23.54H6.39c.09.32.23.69.32,1.06a14.83,14.83,0,0,0,1.42,3.12.48.48,0,0,0,.69.18A.51.51,0,0,0,9,27.22a13.07,13.07,0,0,1-1.33-2.94c-.09-.23-.14-.5-.23-.73h8.18v0h0a.38.38,0,0,0,.32-.18,5.86,5.86,0,0,0,.83-1.7h0a5.16,5.16,0,0,0,.32-1.84,6.12,6.12,0,0,0-.28-1.84l0,0a2.4,2.4,0,0,0-.28-.73,8.79,8.79,0,0,1,1.33-3.91,8,8,0,0,1,3.12-2.8.56.56,0,0,0,.32-.51.51.51,0,0,0-.5-.5H17.5a4.06,4.06,0,0,1,1.19-2.9,3.09,3.09,0,0,1,.6-.5h4.59a3.07,3.07,0,0,1,.6.5,4.06,4.06,0,0,1,1.19,2.9H22.37s-.14,0-.18.09h0l0,0h0v0h0a.42.42,0,0,0-.14.32.57.57,0,0,0,.32.51,8.31,8.31,0,0,1,4.41,6.71c-.09.23-.18.5-.28.73v0a6.13,6.13,0,0,0-.27,1.84,6.37,6.37,0,0,0,.27,1.84h0c.09.28.18.5.28.73a8.44,8.44,0,0,1-1.33,4,9,9,0,0,1-3.08,2.8.46.46,0,0,0-.32.46.48.48,0,0,0,.5.51h3.22A4.25,4.25,0,0,1,24.49,33a6.31,6.31,0,0,1-.6.46H19.3a6.2,6.2,0,0,1-.6-.46,4.25,4.25,0,0,1-1.2-2.94Zm-1-20.63H11.12A16.27,16.27,0,0,1,13.23,7.6,15,15,0,0,1,16,6h1.75a5.28,5.28,0,0,0-1.29,3.4ZM25.41,6h1.75A13.69,13.69,0,0,1,30,7.6a16.31,16.31,0,0,1,2.11,1.84H26.69A5.27,5.27,0,0,0,25.41,6ZM13.78,33.47H9.69a4.63,4.63,0,0,1-4.46-3.4h4.5l.28.32h0a16,16,0,0,0,2.62,2.34,9.5,9.5,0,0,0,1.15.73ZM9.69,6h4.09c-.41.23-.78.5-1.15.73A15.77,15.77,0,0,0,10,9.12h0v0l-.28.28H5.24A4.68,4.68,0,0,1,9.69,6ZM29.4,6h4.13a4.59,4.59,0,0,1,4.41,3.4h-4.5l-.28-.28v0h0a15.85,15.85,0,0,0-2.62-2.34c-.37-.23-.74-.51-1.15-.73Zm8.68,4.41V16H36.8a10.05,10.05,0,0,0-.32-1.1,17.3,17.3,0,0,0-1.38-3.12.57.57,0,0,0-.73-.18.52.52,0,0,0-.18.69,14.22,14.22,0,0,1,1.33,2.94,5.13,5.13,0,0,1,.23.78H27.57a8.44,8.44,0,0,0-1.38-3.31,7.81,7.81,0,0,0-2-2.25Zm0,6.57v5.51H37a13.07,13.07,0,0,0,.19-1.33.51.51,0,0,0-1-.09c0,.46-.14.92-.23,1.42h-8a7,7,0,0,1-.55-1.19h0a4.62,4.62,0,0,1-.23-1.56,4.44,4.44,0,0,1,.23-1.56h0a5.67,5.67,0,0,1,.55-1.2h8a13.47,13.47,0,0,1,.23,1.42.48.48,0,0,0,.55.41.49.49,0,0,0,.46-.55A11.76,11.76,0,0,0,37,17Zm0,6.52v5.51H24.17a9.18,9.18,0,0,0,2-2.21,8.73,8.73,0,0,0,1.38-3.31h8.18a4.38,4.38,0,0,1-.23.73,13.16,13.16,0,0,1-1.33,2.94.51.51,0,0,0,.18.69.53.53,0,0,0,.73-.18,17.37,17.37,0,0,0,1.38-3.12,9.1,9.1,0,0,0,.32-1.06Zm-.14,6.52a4.54,4.54,0,0,1-4.41,3.4H29.4a9.56,9.56,0,0,0,1.15-.73,16,16,0,0,0,2.62-2.34h0l.27-.32ZM5.1,22.53V17H6.16c0,.41-.14.87-.18,1.29a.51.51,0,0,0,.46.55A.46.46,0,0,0,7,18.44,13.25,13.25,0,0,1,7.21,17h8a4,4,0,0,1,.55,1.2h0a5.82,5.82,0,0,1,.23,1.56,4.67,4.67,0,0,1-.28,1.56h0a4.64,4.64,0,0,1-.55,1.19h-8C7.12,22,7,21.57,7,21.11a.48.48,0,0,0-.55-.46A.55.55,0,0,0,6,21.2c0,.46.14.87.18,1.33H5.1ZM5.1,16V10.45H19a9.41,9.41,0,0,0-2,2.25A9.13,9.13,0,0,0,15.67,16H7.44c.09-.28.14-.5.23-.78A14.14,14.14,0,0,1,9,12.29a.5.5,0,0,0-.87-.5,14.78,14.78,0,0,0-1.42,3.12c-.09.37-.23.73-.32,1.1ZM21.59,7.65a.73.73,0,0,1,.73.74.74.74,0,1,1-1.47,0,.73.73,0,0,1,.74-.74Zm0-1.19a.36.36,0,0,1,.37.37.34.34,0,0,1-.37.37.36.36,0,0,1-.37-.37.39.39,0,0,1,.37-.37Zm0,25.41a.73.73,0,1,1,.73-.74.72.72,0,0,1-.73.74Zm0,1.2a.4.4,0,0,1-.37-.37.36.36,0,0,1,.37-.37.34.34,0,0,1,.37.37.37.37,0,0,1-.37.37Z"/><line class="cls-3" x1="20.74" y1="0.23" x2="22.45" y2="1.94"/><line class="cls-3" x1="22.45" y1="0.23" x2="20.74" y2="1.94"/><line class="cls-3" x1="41.25" y1="18.9" x2="42.96" y2="20.6"/><line class="cls-3" x1="42.96" y1="18.9" x2="41.25" y2="20.6"/><line class="cls-3" x1="20.74" y1="36.14" x2="22.45" y2="37.84"/><line class="cls-3" x1="22.45" y1="36.14" x2="20.74" y2="37.84"/><line class="cls-3" x1="0.23" y1="18.9" x2="1.94" y2="20.6"/><line class="cls-3" x1="1.94" y1="18.9" x2="0.23" y2="20.6"/></g></g></svg>