<svg xmlns="http://www.w3.org/2000/svg" viewBox="0 0 42 39.5"><defs><style>.cls-1{fill:#00ff86;}.cls-2,.cls-3,.cls-4{fill:none;stroke:#00ff86;stroke-linecap:round;stroke-linejoin:round;}.cls-3{stroke-dasharray:4.17 4.17;}.cls-4{stroke-dasharray:4.84 4.84;}</style></defs><title>Ресурс 19</title><g id="Слой_2" data-name="Слой 2"><g id="Layer_1" data-name="Layer 1"><path class="cls-1" d="M5.25,13.55A2.06,2.06,0,1,0,3.2,11.49,2.06,2.06,0,0,0,5.25,13.55Zm0-2.75a.69.69,0,1,1-.68.69A.69.69,0,0,1,5.25,10.8Z"/><path class="cls-1" d="M42,15.41l-1-1-9.79,9.84-.11-.13-5.76-5.79.88-.89-1-1-2,2a3.25,3.25,0,0,1-4,.45l5-5h0L37.21,1l-1-1L23.73,12.58l-.88-.89a.68.68,0,0,0-.48-.2H19.9l-1.17-1.17L9.16.69l-1,1,6.36,6.39L5.8,16.85.93,12.36l-.93,1,8,7.36v1.76a.69.69,0,0,0,.2.49l3,3a2.14,2.14,0,0,0,1.64,3.41,2.14,2.14,0,0,0,2.05,2.06,2.14,2.14,0,0,0,2.05,2.06,2.13,2.13,0,0,0,3,1.9l.05.05a2.73,2.73,0,0,0,3.87,0L31.14,28a2.74,2.74,0,0,0,.8-1.94,2.79,2.79,0,0,0-.05-.52ZM15.52,9l1.77,1.78L8.65,19.48l-1.85-1.7Zm-3.42,18.2a.77.77,0,0,1,.22-.55l3.26-3.27a.76.76,0,0,1,.54-.23.77.77,0,0,1,.54,1.32L13.4,27.77a.76.76,0,0,1-.54.23A.77.77,0,0,1,12.09,27.22Zm2.05,2.06a.77.77,0,0,1,.22-.55l3.26-3.27a.76.76,0,0,1,.54-.23.77.77,0,0,1,.54,1.32l-3.26,3.27a.76.76,0,0,1-.54.23A.77.77,0,0,1,14.15,29.29Zm2.05,2.06a.77.77,0,0,1,.22-.55l3.26-3.27a.76.76,0,0,1,.54-.23.77.77,0,0,1,.54,1.32L17.51,31.9a.76.76,0,0,1-.54.23A.77.77,0,0,1,16.2,31.35Zm2.05,2.06a.77.77,0,0,1,.22-.55l3.26-3.27a.76.76,0,0,1,.54-.23.77.77,0,0,1,.54,1.32L19.56,34a.76.76,0,0,1-.54.23A.77.77,0,0,1,18.25,33.41Zm11.92-6.34-7.36,7.4a1.39,1.39,0,0,1-1.87.05l2.85-2.86A2.15,2.15,0,0,0,22.35,28a2.14,2.14,0,0,0-2.05-2.06,2.14,2.14,0,0,0-2.05-2.06,2.14,2.14,0,0,0-2.13-2.07,2.12,2.12,0,0,0-1.51.63L12.09,25,9.36,22.21V20.72l8.89-8.94.88.89a.68.68,0,0,0,.48.2h2.45l.68.69-5,5a.69.69,0,0,0,0,1,4.61,4.61,0,0,0,6.5,0l.18-.18,5.76,5.79a1.38,1.38,0,0,1,0,1.95Z"/><path class="cls-2" d="M13.6,2.59A18.79,18.79,0,0,1,16,1.78"/><path class="cls-3" d="M20.08,1.13l.92,0a19.07,19.07,0,0,1,5.28.74"/><path class="cls-2" d="M28.25,2.53a19,19,0,0,1,2.24,1.1"/><path class="cls-2" d="M40,21.42a18.9,18.9,0,0,1-.34,2.48"/><path class="cls-4" d="M38,28.46a19,19,0,0,1-35.4-3.55"/><path class="cls-2" d="M2.16,22.55A19.09,19.09,0,0,1,2,20.05"/></g></g></svg>