<svg xmlns="http://www.w3.org/2000/svg" viewBox="0 0 41 39.5"><defs><style>.cls-1{fill:none;stroke:#00ff86;stroke-linecap:round;stroke-linejoin:round;}.cls-2,.cls-3{fill:#00f273;}.cls-3{stroke:#00f273;stroke-miterlimit:10;stroke-width:0.25px;}.cls-4{fill:#00ff86;}</style></defs><title>Ресурс 5</title><g id="Слой_2" data-name="Слой 2"><g id="Layer_1" data-name="Layer 1"><path class="cls-1" d="M10.4,32.5H2.5a2,2,0,0,1-2-2V2.5a2,2,0,0,1,2-2h36a2,2,0,0,1,2,2v28a2,2,0,0,1-2,2H31"/><path class="cls-2" d="M25.5,18.5a2,2,0,0,1,2,2v16a2,2,0,0,1-2,2h-10a2,2,0,0,1-2-2v-16a2,2,0,0,1,2-2h10m0-1h-10a3,3,0,0,0-3,3v16a3,3,0,0,0,3,3h10a3,3,0,0,0,3-3v-16a3,3,0,0,0-3-3Z"/><path class="cls-3" d="M21.17,21.58H18.8v3.78H18v.71h.8v1.06H18v.71h.8V30h.85V27.84h1v-.71h-1V26.07h1.49c1.7,0,2.85-.75,2.85-2.25S22.88,21.58,21.17,21.58Zm-.07,3.76H19.66v-3H21.1c1.29,0,2,.47,2,1.5S22.43,25.35,21.1,25.35Z"/><rect class="cls-2" x="17.5" y="35.59" width="6" height="1" rx="0.5" ry="0.5"/><rect class="cls-2" x="15.5" y="33.32" width="10" height="1" rx="0.5" ry="0.5"/><rect class="cls-4" x="0.5" y="5" width="40" height="1"/><rect class="cls-4" x="2.5" y="2.5" width="1" height="1" rx="0.5" ry="0.5"/><rect class="cls-4" x="4.5" y="2.5" width="1" height="1" rx="0.5" ry="0.5"/><rect class="cls-4" x="6.5" y="2.5" width="1" height="1" rx="0.5" ry="0.5"/><rect class="cls-4" x="8.5" y="10" width="24" height="1" rx="0.5" ry="0.5"/><rect class="cls-4" x="12.5" y="13" width="16" height="1" rx="0.5" ry="0.5"/></g></g></svg>