<svg xmlns="http://www.w3.org/2000/svg" viewBox="0 0 41 33"><defs><style>.cls-1{opacity:0.66;}.cls-2{fill:none;stroke:#fff;stroke-linecap:round;stroke-linejoin:round;}.cls-3{fill:#fff;}</style></defs><title>Ресурс 23</title><g id="Слой_2" data-name="Слой 2"><g id="Layer_1" data-name="Layer 1"><g class="cls-1"><path class="cls-2" d="M31,32.5H38.5a2,2,0,0,0,2-2V2.5a2,2,0,0,0-2-2H2.5a2,2,0,0,0-2,2v28a2,2,0,0,0,2,2H31Z"/><rect class="cls-3" x="0.5" y="5" width="40" height="1"/><rect class="cls-3" x="2.5" y="2.5" width="1" height="1" rx="0.5" ry="0.5"/><rect class="cls-3" x="4.5" y="2.5" width="1" height="1" rx="0.5" ry="0.5"/><rect class="cls-3" x="6.5" y="2.5" width="1" height="1" rx="0.5" ry="0.5"/><rect class="cls-3" x="8.5" y="14.5" width="24" height="1" rx="0.5" ry="0.5"/><rect class="cls-3" x="12.5" y="17.5" width="16" height="1" rx="0.5" ry="0.5"/></g></g></g></svg>