<svg xmlns="http://www.w3.org/2000/svg" viewBox="0 0 44.73 37.47"><defs><style>.cls-1,.cls-3{fill:none;stroke:#00ff86;stroke-linecap:round;stroke-width:1.47px;}.cls-1{stroke-miterlimit:10;}.cls-2{fill:#00ff86;}.cls-3{stroke-linejoin:round;}</style></defs><title>Ресурс 25</title><g id="Слой_2" data-name="Слой 2"><g id="Layer_1" data-name="Layer 1"><path class="cls-1" d="M23.23,15.07a5.86,5.86,0,1,0-.12,6.62"/><path class="cls-2" d="M44.72,15.71a2.68,2.68,0,0,0-.82-2,4.33,4.33,0,0,0-3.3-1.26c-3.3.13-6.67,3.89-7.65,5H18.48c-.6,0-1.12.3-1.12.83s.52.83,1.12.83H32.95c1,1.13,4.35,4.89,7.65,5h.22a4.09,4.09,0,0,0,3.07-1.26,2.43,2.43,0,0,0,.82-2A4.59,4.59,0,0,0,43.3,18.3,4.19,4.19,0,0,0,44.72,15.71Zm-2.43,5.92a2.22,2.22,0,0,1-1.55.83c-1.42-.07-3.37-1.93-4.8-3.33h5.32a3.18,3.18,0,0,1,1.2,1.9A.73.73,0,0,1,42.29,21.63Zm-1-4.16H35.95c1.42-1.4,3-3.26,4.47-3.33a3.38,3.38,0,0,1,1.87.83.69.69,0,0,1,.18.6A3,3,0,0,1,41.27,17.47Z"/><path class="cls-1" d="M29.11,13.67a11.71,11.71,0,1,0,0,9.32"/><path class="cls-1" d="M34.76,12a17.57,17.57,0,1,0,0,12.6"/><line class="cls-3" x1="28.22" y1="33.05" x2="31.91" y2="36.73"/><line class="cls-3" x1="8.44" y1="33.05" x2="4.76" y2="36.73"/></g></g></svg>