<svg xmlns="http://www.w3.org/2000/svg" viewBox="0 0 40 39.01"><defs><style>.cls-1{fill:#00ff86;}</style></defs><title>Ресурс 18</title><g id="Слой_2" data-name="Слой 2"><g id="Layer_1" data-name="Layer 1"><path class="cls-1" d="M1.07,26.59v-7a2.07,2.07,0,0,1,1.63-2L4.59,17l1.09-.32a.31.31,0,0,0,.24-.29V15.11l-.05-.05a2.64,2.64,0,0,1-1-1.79c0-.24,0-.43-.05-.53H4.62a.43.43,0,0,1-.43-.35L4,11.27a.54.54,0,0,1,.53-.61L4.59,8.6A2.32,2.32,0,0,1,6.92,6.3h1.5a2.3,2.3,0,0,1,2.32,2.3l.05,2.06a.54.54,0,0,1,.53.61l-.16,1.07a.41.41,0,0,1-.43.35h-.21c0,.11,0,.32-.05.53a2.54,2.54,0,0,1-1,1.79l-.08.05v1.28a.29.29,0,0,0,.24.29l.85.24A4.64,4.64,0,0,1,12,16.23h0l-1.63-.45v-.24a3.52,3.52,0,0,0,1-2,1.46,1.46,0,0,0,.72-1l.16-1.07A1.51,1.51,0,0,0,12,10.15c-.05-.05-.11-.13-.16-.16l0-1.39A3.37,3.37,0,0,0,8.44,5.26H6.94A3.37,3.37,0,0,0,3.55,8.6l0,1.39-.19.19A1.7,1.7,0,0,0,3,11.45l.16,1.07a1.59,1.59,0,0,0,.72,1.07,3.52,3.52,0,0,0,1,2v.21L4.3,16l-1.87.53A3.15,3.15,0,0,0,0,19.57v7.64l.53.32L8.17,32V30.81Z"/><path class="cls-1" d="M37.59,16.53l-2.43-.69v-.24a3.61,3.61,0,0,0,1-2,1.48,1.48,0,0,0,.72-1.07l.16-1.07a1.51,1.51,0,0,0-.37-1.28L36.53,10l0-1.39a3.37,3.37,0,0,0-3.39-3.34h-1.5A3.37,3.37,0,0,0,28.22,8.6l0,1.39-.16.16a1.7,1.7,0,0,0-.37,1.28l.16,1.07a1.53,1.53,0,0,0,.72,1.07,3.61,3.61,0,0,0,1,2v.24L29,16l-1,.29h0a4.84,4.84,0,0,1,1.58.67l.8-.24a.31.31,0,0,0,.24-.29V15.11l-.08-.05a2.54,2.54,0,0,1-1-1.79c0-.24-.05-.45-.05-.53h-.21a.43.43,0,0,1-.43-.35l-.16-1.07a.54.54,0,0,1,.53-.61l.05-2.06a2.3,2.3,0,0,1,2.32-2.27h1.5a2.3,2.3,0,0,1,2.32,2.27l.05,2.06a.54.54,0,0,1,.53.61l-.16,1.07a.41.41,0,0,1-.43.35h-.21c0,.11,0,.32-.05.53a2.54,2.54,0,0,1-1,1.79l-.08.05v1.28a.31.31,0,0,0,.24.29l3,.85a2,2,0,0,1,1.63,2v7l-7.08,4.17V32l7.61-4.49.53-.32V19.6A3,3,0,0,0,37.59,16.53Z"/><path class="cls-1" d="M16.66,6.19A1.92,1.92,0,0,0,18.4,5.13l0-.05A3.59,3.59,0,0,0,21,6.17h2.91V5.1H21a2.53,2.53,0,0,1-2.19-1.28l-.48-.88-.88,1.68a.9.9,0,0,1-.8.48h-.51l0,1.09h.53Z"/><path class="cls-1" d="M27.8,17.06l-4.09-1.17v-1a4.85,4.85,0,0,0,1.58-3.18,1.72,1.72,0,0,0,1.07-1.34l.27-1.63a1.89,1.89,0,0,0-.43-1.5,2.31,2.31,0,0,0-.37-.35l-.05-2.38A4.56,4.56,0,0,0,21.17,0H18.9a4.56,4.56,0,0,0-4.59,4.51l-.05,2.38a2.31,2.31,0,0,0-.37.35,1.89,1.89,0,0,0-.43,1.5l.27,1.63a1.69,1.69,0,0,0,1.07,1.31,5,5,0,0,0,1.58,3.18v1l-1.25.35-2.83.8A4.18,4.18,0,0,0,9,21.12V32.36l.53.32,10.15,6,.56.32.53-.32,9.88-6,.51-.32V21.17A4.33,4.33,0,0,0,27.8,17.06ZM30,31.8l-9.88,6L10,31.8V21.17A3.12,3.12,0,0,1,12.5,18.1l2.88-.83L17,16.79a.48.48,0,0,0,.37-.45v-.67l.08.05a3.37,3.37,0,0,0,1.87.59h.53V15.25h-.53a2.13,2.13,0,0,1-1.25-.4l-.69-.48h0l-.11-.08a4,4,0,0,1-1.5-2.72c0-.35-.05-.67-.08-.83h-.35a.66.66,0,0,1-.64-.53l-.27-1.63a.81.81,0,0,1,.8-.93l.08-3.12A3.49,3.49,0,0,1,18.88,1h2.27a3.49,3.49,0,0,1,3.52,3.47l.08,3.12a.8.8,0,0,1,.8.93l-.27,1.63a.63.63,0,0,1-.64.53H24.3c0,.16-.05.48-.08.83a3.86,3.86,0,0,1-1.5,2.72l-.11.08v4h1.07V17l3.82,1.09A3.12,3.12,0,0,1,30,21.15V31.8Z"/><path class="cls-1" d="M25.82,32.63l-1.55-3.9a5.74,5.74,0,0,0,1.55-3.93,5.82,5.82,0,0,0-11.64,0,5.74,5.74,0,0,0,1.55,3.93l-1.5,3.9a.55.55,0,0,0,.11.56.51.51,0,0,0,.53.16l1.9-.53,1,1.66a.55.55,0,0,0,.45.27h.05a.56.56,0,0,0,.45-.35L20,31.13l1.28,3.26a.56.56,0,0,0,.45.35h.05a.55.55,0,0,0,.45-.27l1-1.66,1.9.53a.51.51,0,0,0,.53-.16A.55.55,0,0,0,25.82,32.63Zm-1-7.82A4.75,4.75,0,1,1,20,20.11,4.74,4.74,0,0,1,24.78,24.81ZM18.13,33l-.67-1.09a.55.55,0,0,0-.45-.27.2.2,0,0,0-.13,0L15.62,32l1-2.54a5.84,5.84,0,0,0,2.51,1Zm5-1.34a.51.51,0,0,0-.59.24L21.92,33l-1-2.51a5.53,5.53,0,0,0,2.51-1l1,2.54Z"/><path class="cls-1" d="M16.71,24.24,18,25.47l-.29,1.74a.61.61,0,0,0,.21.53.6.6,0,0,0,.56.05L20,27l1.58.83a.4.4,0,0,0,.24.05.51.51,0,0,0,.32-.11.56.56,0,0,0,.21-.53l-.29-1.74,1.25-1.23a.59.59,0,0,0,.13-.56.55.55,0,0,0-.43-.37l-1.76-.24-.77-1.58a.54.54,0,0,0-1,0l-.77,1.58L17,23.31a.48.48,0,0,0-.43.37A.59.59,0,0,0,16.71,24.24Zm2.48-.13a.51.51,0,0,0,.4-.29L20,23l.43.85a.56.56,0,0,0,.4.29l1,.13-.69.67a.54.54,0,0,0-.16.48l.16.93-.85-.45a.4.4,0,0,0-.24-.05.78.78,0,0,0-.24.05l-.85.45.16-.93a.54.54,0,0,0-.16-.48l-.69-.67Z"/></g></g></svg>