<svg xmlns="http://www.w3.org/2000/svg" viewBox="0 0 41 37"><defs><style>.cls-1,.cls-3{fill:none;stroke:#00ff86;}.cls-1{stroke-linecap:round;stroke-linejoin:round;}.cls-2{fill:#00ff86;}.cls-3{stroke-miterlimit:10;}</style></defs><title>Ресурс 17</title><g id="Слой_2" data-name="Слой 2"><g id="Layer_1" data-name="Layer 1"><path class="cls-1" d="M10.4,32.57H2.5a2,2,0,0,1-2-2V2.5a2,2,0,0,1,2-2h36a2,2,0,0,1,2,2V30.57a2,2,0,0,1-2,2H31"/><rect class="cls-2" x="0.5" y="5.01" width="40" height="1"/><rect class="cls-2" x="2.5" y="2.5" width="1" height="1" rx="0.5" ry="0.5"/><rect class="cls-2" x="4.5" y="2.5" width="1" height="1" rx="0.5" ry="0.5"/><rect class="cls-2" x="6.5" y="2.5" width="1" height="1" rx="0.5" ry="0.5"/><rect class="cls-2" x="8.5" y="10.02" width="24" height="1" rx="0.5" ry="0.5"/><rect class="cls-2" x="12.5" y="13.03" width="16" height="1" rx="0.5" ry="0.5"/><ellipse class="cls-3" cx="20.5" cy="28.56" rx="8" ry="7.94"/><polyline class="cls-3" points="20.5 20.46 20.5 28.56 28.28 28.56"/></g></g></svg>