<svg xmlns="http://www.w3.org/2000/svg" viewBox="0 0 41 39.5"><defs><style>.cls-1{fill:none;stroke:#00ff86;stroke-linecap:round;stroke-linejoin:round;}.cls-2{fill:#00ff86;}</style></defs><title>Ресурс 4</title><g id="Слой_2" data-name="Слой 2"><g id="Layer_1" data-name="Layer 1"><path class="cls-1" d="M10.4,32.5H2.5a2,2,0,0,1-2-2V2.5a2,2,0,0,1,2-2h36a2,2,0,0,1,2,2v28a2,2,0,0,1-2,2H31"/><rect class="cls-2" x="0.5" y="5" width="40" height="1"/><rect class="cls-2" x="2.5" y="2.5" width="1" height="1" rx="0.5" ry="0.5"/><rect class="cls-2" x="4.5" y="2.5" width="1" height="1" rx="0.5" ry="0.5"/><rect class="cls-2" x="6.5" y="2.5" width="1" height="1" rx="0.5" ry="0.5"/><rect class="cls-2" x="8.5" y="10" width="24" height="1" rx="0.5" ry="0.5"/><rect class="cls-2" x="12.5" y="13" width="16" height="1" rx="0.5" ry="0.5"/><path class="cls-2" d="M20.5,20.66a56.76,56.76,0,0,0-7.1.39c-2.84.38-3.43.88-3.43,1.51a.77.77,0,0,0,.27.6L18,32.92v5.44c0,.75,1.26,1.14,2.5,1.14,1,0,2.5-.31,2.5-1.14V32.92l7.77-9.76a.77.77,0,0,0,.28-.61c0-.63-.58-1.13-3.43-1.51a56.76,56.76,0,0,0-7.1-.39Zm0,2.64a38.63,38.63,0,0,1-8.84-.74,38.62,38.62,0,0,1,8.84-.74,38.62,38.62,0,0,1,8.84.74,38.63,38.63,0,0,1-8.84.74Zm0,15a3.29,3.29,0,0,1-1.3-.22V32.73a.57.57,0,0,0-.12-.36l-6.7-8.46,1.05.16a56.75,56.75,0,0,0,7.1.39,56.75,56.75,0,0,0,7.1-.39l1-.16L21.9,32.37a.57.57,0,0,0-.13.36v5.38a3.43,3.43,0,0,1-1.3.23ZM17.18,26a.67.67,0,1,0,.7.67.68.68,0,0,0-.7-.67Zm5.57.85a.67.67,0,1,0,.7.67.68.68,0,0,0-.7-.67Zm-2.94.74a.67.67,0,1,0,.7.67.68.68,0,0,0-.7-.67Zm.67,3.64a.67.67,0,1,0,.7.67.68.68,0,0,0-.7-.67Z"/></g></g></svg>