<svg xmlns="http://www.w3.org/2000/svg" viewBox="0 0 93.07 71.3"><defs><style>.cls-1{fill:#0f8;}.cls-2,.cls-3,.cls-4,.cls-5,.cls-6{fill:none;stroke-linecap:round;stroke-width:0.59px;}.cls-2,.cls-3{stroke:#0f8;stroke-dasharray:0 2.35 0 0 0 0;}.cls-2,.cls-4,.cls-5{stroke-linejoin:round;}.cls-3,.cls-6{stroke-miterlimit:10;}.cls-4,.cls-5,.cls-6{stroke:#606060;}.cls-5{stroke-dasharray:0 2.53 0 0 0 0;}.cls-6{stroke-dasharray:0 2.21 0 0 0 0;}</style></defs><title>Ресурс 33</title><g id="Слой_2" data-name="Слой 2"><g id="Layer_1" data-name="Layer 1"><path d="M90.37,1.58C88.56,6.79,80,10.31,72.72,10.31,66.21,2.79,58,0,47,0S26.64,1.71,20.15,9.25C13.84,9.25,5.79,5.56,4.31.88-6,9.72,4.31,26.8,12.51,26.8c-1.41,3.88-1,4.56-1,9A35.4,35.4,0,0,0,47.27,71.3,35.4,35.4,0,0,0,82.81,35.53c0-4.32,1.45-5.63.07-9.45C90.75,22.91,96.78,12.9,90.37,1.58Zm-48,50.66M63.56,16.51,47.27,68.95"/><path class="cls-1" d="M88.32,9.43a25.59,25.59,0,0,1-16.09,5.35c-.6,0-1.18,0-1.77-.06L51.23,65.28a33.07,33.07,0,0,0,24-31.79,42.88,42.88,0,0,0-.8-8.07C82.56,22.87,88.32,16.67,88.32,9.43Z"/><path class="cls-1" d="M50.77,19.74l0,0a16.4,16.4,0,0,0,.11-1.83A16.22,16.22,0,0,0,46,6.37a16.22,16.22,0,0,0-4.84,11.57,16.4,16.4,0,0,0,.11,1.83l0,0A16.22,16.22,0,0,0,29.73,15L46,56.51,62.27,15A16.22,16.22,0,0,0,50.77,19.74Z"/><path class="cls-1" d="M3.69,9.43a25.59,25.59,0,0,0,16.09,5.35c.6,0,1.18,0,1.77-.06L40.78,65.28a33.07,33.07,0,0,1-24-31.79,42.88,42.88,0,0,1,.8-8.07C9.45,22.87,3.69,16.67,3.69,9.43Z"/><circle cx="46.53" cy="35.83" r="31.5"/><rect class="cls-2" x="39.65" y="14.04" width="12.67" height="12.67" transform="translate(-3.71 12.6) rotate(-15)"/><circle class="cls-3" cx="50.45" cy="12.56" r="0.71" transform="translate(-1.53 13.48) rotate(-15)"/><circle class="cls-3" cx="53.74" cy="24.86" r="0.71" transform="matrix(0.97, -0.26, 0.26, 0.97, -4.6, 14.76)"/><circle class="cls-3" cx="41.51" cy="28.13" r="0.71" transform="translate(-5.87 11.7) rotate(-15)"/><circle class="cls-3" cx="38.23" cy="15.9" r="0.71" transform="translate(-2.81 10.44) rotate(-15)"/><rect class="cls-2" x="39.65" y="14.04" width="12.67" height="12.67" transform="translate(-3.71 12.6) rotate(-15)"/><circle class="cls-3" cx="50.45" cy="12.56" r="0.71" transform="translate(-1.53 13.48) rotate(-15)"/><circle class="cls-3" cx="53.74" cy="24.86" r="0.71" transform="matrix(0.97, -0.26, 0.26, 0.97, -4.6, 14.76)"/><circle class="cls-3" cx="41.51" cy="28.13" r="0.71" transform="translate(-5.87 11.7) rotate(-15)"/><circle class="cls-3" cx="38.23" cy="15.9" r="0.71" transform="translate(-2.81 10.44) rotate(-15)"/><rect class="cls-2" x="39.66" y="14.04" width="12.67" height="12.67" transform="translate(-4.03 25.73) rotate(-30)"/><circle class="cls-3" cx="48.28" cy="11.67" r="0.71" transform="translate(0.63 25.7) rotate(-30)"/><circle class="cls-3" cx="54.65" cy="22.7" r="0.71" transform="translate(-4.03 30.36) rotate(-30)"/><circle class="cls-3" cx="43.68" cy="29.03" r="0.71" transform="translate(-8.66 25.73) rotate(-30)"/><circle class="cls-3" cx="37.34" cy="18.06" r="0.71" transform="matrix(0.87, -0.5, 0.5, 0.87, -4.03, 21.09)"/><rect class="cls-2" x="39.67" y="14.04" width="12.67" height="12.67" transform="translate(-0.93 38.5) rotate(-45)"/><circle class="cls-3" cx="45.96" cy="11.37" r="0.71" transform="translate(5.42 35.83) rotate(-45)"/><circle class="cls-3" cx="54.96" cy="20.38" r="0.71" transform="translate(1.69 44.83) rotate(-45)"/><circle class="cls-3" cx="46" cy="29.33" r="0.71" transform="translate(-7.27 41.12) rotate(-45)"/><circle class="cls-3" cx="37.05" cy="20.38" r="0.71" transform="translate(-3.56 32.16) rotate(-45)"/><rect class="cls-2" x="39.68" y="14.04" width="12.67" height="12.67" transform="translate(5.36 50.03) rotate(-60)"/><circle class="cls-3" cx="43.63" cy="11.69" r="0.71" transform="matrix(0.5, -0.87, 0.87, 0.5, 11.69, 43.63)"/><circle class="cls-3" cx="54.66" cy="18.06" r="0.71" transform="translate(11.69 56.37) rotate(-60)"/><circle class="cls-3" cx="48.33" cy="29.03" r="0.71" transform="translate(-0.97 56.37) rotate(-60)"/><circle class="cls-3" cx="37.36" cy="22.69" r="0.71" transform="matrix(0.5, -0.87, 0.87, 0.5, -0.97, 43.7)"/><rect class="cls-2" x="39.68" y="14.04" width="12.67" height="12.67" transform="translate(14.42 59.55) rotate(-75)"/><circle class="cls-3" cx="41.47" cy="12.6" r="0.71" transform="matrix(0.26, -0.97, 0.97, 0.26, 18.57, 49.4)"/><circle class="cls-3" cx="53.77" cy="15.9" r="0.71" transform="translate(24.5 63.72) rotate(-75)"/><circle class="cls-3" cx="50.49" cy="28.13" r="0.71" transform="translate(10.25 69.62) rotate(-75)"/><circle class="cls-3" cx="38.26" cy="24.85" r="0.71" transform="translate(4.35 55.37) rotate(-75)"/><rect class="cls-2" x="39.68" y="14.04" width="12.67" height="12.67" transform="translate(25.64 66.39) rotate(-90)"/><circle class="cls-3" cx="39.62" cy="14.04" r="0.71"/><circle class="cls-3" cx="52.35" cy="14.04" r="0.71"/><circle class="cls-3" cx="52.35" cy="26.71" r="0.71"/><circle class="cls-3" cx="39.68" cy="26.71" r="0.71"/><path class="cls-1" d="M46.11,15.82a4.27,4.27,0,0,1,4.26,4.26,4.32,4.32,0,0,1-4.26,4.47,4.36,4.36,0,0,1-4.47-4.47A4.32,4.32,0,0,1,46.11,15.82Z"/><path class="cls-1" d="M45.9,3.69A32,32,0,0,1,78.25,35.83,32.24,32.24,0,1,1,13.76,36,32,32,0,0,1,45.9,3.69Zm.64,32.14c19.79-1.06,19.16-30-1.06-30C29.08,5.82,15.89,19.65,15.89,36c0,17.24,13.2,29.8,30.22,30C38.45,65,31,59.88,31,50.94,30.78,41.79,38.23,36.46,46.53,35.83Zm-.43,10.85a4.32,4.32,0,0,0-4.47,4.26,4.19,4.19,0,0,0,4.47,4.26,4.14,4.14,0,0,0,4.26-4.26A4.27,4.27,0,0,0,46.11,46.68Z"/><line class="cls-4" x1="53.76" y1="55.46" x2="53.76" y2="55.46"/><line class="cls-5" x1="51.31" y1="56.12" x2="41.52" y2="58.74"/><line class="cls-4" x1="41.52" y1="58.74" x2="41.52" y2="58.74"/><line class="cls-5" x1="40.87" y1="56.29" x2="38.24" y2="46.5"/><line class="cls-4" x1="38.24" y1="46.5" x2="38.24" y2="46.5"/><line class="cls-5" x1="40.69" y1="45.85" x2="50.48" y2="43.22"/><line class="cls-4" x1="50.48" y1="43.22" x2="50.48" y2="43.22"/><line class="cls-5" x1="51.13" y1="45.67" x2="53.76" y2="55.46"/><circle class="cls-6" cx="50.46" cy="43.16" r="0.71" transform="translate(-9.45 14.53) rotate(-15)"/><circle class="cls-6" cx="53.76" cy="55.46" r="0.71" transform="translate(-12.52 15.8) rotate(-15)"/><circle class="cls-6" cx="41.52" cy="58.74" r="0.71" transform="translate(-13.79 12.75) rotate(-15)"/><circle class="cls-6" cx="38.24" cy="46.5" r="0.71" transform="translate(-10.73 11.48) rotate(-15)"/><line class="cls-4" x1="53.76" y1="55.46" x2="53.76" y2="55.46"/><line class="cls-5" x1="51.31" y1="56.12" x2="41.52" y2="58.74"/><line class="cls-4" x1="41.52" y1="58.74" x2="41.52" y2="58.74"/><line class="cls-5" x1="40.87" y1="56.29" x2="38.24" y2="46.5"/><line class="cls-4" x1="38.24" y1="46.5" x2="38.24" y2="46.5"/><line class="cls-5" x1="40.69" y1="45.85" x2="50.48" y2="43.22"/><line class="cls-4" x1="50.48" y1="43.22" x2="50.48" y2="43.22"/><line class="cls-5" x1="51.13" y1="45.67" x2="53.76" y2="55.46"/><circle class="cls-6" cx="50.46" cy="43.16" r="0.71" transform="translate(-9.45 14.53) rotate(-15)"/><circle class="cls-6" cx="53.76" cy="55.46" r="0.71" transform="translate(-12.52 15.8) rotate(-15)"/><circle class="cls-6" cx="41.52" cy="58.74" r="0.71" transform="translate(-13.79 12.75) rotate(-15)"/><circle class="cls-6" cx="38.24" cy="46.5" r="0.71" transform="translate(-10.73 11.48) rotate(-15)"/><line class="cls-4" x1="54.66" y1="53.3" x2="54.66" y2="53.3"/><line class="cls-5" x1="52.47" y1="54.56" x2="43.69" y2="59.63"/><line class="cls-4" x1="43.69" y1="59.63" x2="43.69" y2="59.63"/><line class="cls-5" x1="42.42" y1="57.44" x2="37.36" y2="48.66"/><line class="cls-4" x1="37.36" y1="48.66" x2="37.36" y2="48.66"/><line class="cls-5" x1="39.55" y1="47.4" x2="48.33" y2="42.33"/><line class="cls-4" x1="48.33" y1="42.33" x2="48.33" y2="42.33"/><line class="cls-5" x1="49.59" y1="44.52" x2="54.66" y2="53.3"/><circle class="cls-6" cx="48.29" cy="42.27" r="0.71" transform="translate(-14.66 29.81) rotate(-30)"/><circle class="cls-6" cx="54.66" cy="53.3" r="0.71" transform="translate(-19.33 34.47) rotate(-30)"/><circle class="cls-6" cx="43.69" cy="59.63" r="0.71" transform="translate(-23.97 29.84) rotate(-30.01)"/><circle class="cls-6" cx="37.36" cy="48.66" r="0.71" transform="translate(-19.33 25.2) rotate(-30)"/><line class="cls-4" x1="54.97" y1="50.98" x2="54.97" y2="50.98"/><line class="cls-5" x1="53.18" y1="52.77" x2="46.02" y2="59.94"/><line class="cls-4" x1="46.02" y1="59.94" x2="46.02" y2="59.94"/><line class="cls-5" x1="44.22" y1="58.14" x2="37.06" y2="50.98"/><line class="cls-4" x1="37.06" y1="50.98" x2="37.06" y2="50.98"/><line class="cls-5" x1="38.85" y1="49.19" x2="46.02" y2="42.02"/><line class="cls-4" x1="46.02" y1="42.02" x2="46.02" y2="42.02"/><line class="cls-5" x1="47.81" y1="43.81" x2="54.97" y2="50.98"/><circle class="cls-6" cx="45.97" cy="41.98" r="0.71" transform="translate(-16.22 44.81) rotate(-45.01)"/><circle class="cls-6" cx="54.97" cy="50.98" r="0.71" transform="translate(-19.95 53.8) rotate(-45)"/><circle class="cls-6" cx="46.02" cy="59.94" r="0.71" transform="translate(-28.9 50.09) rotate(-45)"/><circle class="cls-6" cx="37.06" cy="50.98" r="0.71" transform="translate(-25.19 41.14) rotate(-45)"/><line class="cls-4" x1="54.67" y1="48.66" x2="54.67" y2="48.66"/><line class="cls-5" x1="53.41" y1="50.85" x2="48.34" y2="59.63"/><line class="cls-4" x1="48.34" y1="59.63" x2="48.34" y2="59.63"/><line class="cls-5" x1="46.15" y1="58.36" x2="37.37" y2="53.3"/><line class="cls-4" x1="37.37" y1="53.3" x2="37.37" y2="53.3"/><line class="cls-5" x1="38.64" y1="51.1" x2="43.7" y2="42.33"/><line class="cls-4" x1="43.7" y1="42.33" x2="43.7" y2="42.33"/><line class="cls-5" x1="45.9" y1="43.59" x2="54.67" y2="48.66"/><circle class="cls-6" cx="43.65" cy="42.29" r="0.71" transform="translate(-14.8 58.95) rotate(-60)"/><circle class="cls-6" cx="54.67" cy="48.66" r="0.71" transform="translate(-14.81 71.68) rotate(-60)"/><circle class="cls-6" cx="48.34" cy="59.63" r="0.71" transform="translate(-27.47 71.68) rotate(-60)"/><circle class="cls-6" cx="37.37" cy="53.3" r="0.71" transform="translate(-27.47 59.01) rotate(-60)"/><line class="cls-4" x1="53.78" y1="46.5" x2="53.78" y2="46.5"/><line class="cls-5" x1="53.13" y1="48.95" x2="50.5" y2="58.73"/><line class="cls-4" x1="50.5" y1="58.73" x2="50.5" y2="58.73"/><line class="cls-5" x1="48.06" y1="58.08" x2="38.27" y2="55.46"/><line class="cls-4" x1="38.27" y1="55.46" x2="38.27" y2="55.46"/><line class="cls-5" x1="38.92" y1="53.01" x2="41.55" y2="43.22"/><line class="cls-4" x1="41.55" y1="43.22" x2="41.55" y2="43.22"/><line class="cls-5" x1="43.99" y1="43.88" x2="53.78" y2="46.5"/><circle class="cls-6" cx="41.48" cy="43.2" r="0.71" transform="translate(-10.99 72.09) rotate(-75)"/><circle class="cls-6" cx="53.78" cy="46.5" r="0.71" transform="translate(-5.07 86.39) rotate(-74.98)"/><circle class="cls-6" cx="50.5" cy="58.73" r="0.71" transform="translate(-19.3 92.32) rotate(-75)"/><circle class="cls-6" cx="38.27" cy="55.46" r="0.71" transform="translate(-25.2 78.07) rotate(-75)"/><line class="cls-4" x1="52.36" y1="44.64" x2="52.36" y2="44.64"/><line class="cls-5" x1="52.36" y1="47.18" x2="52.36" y2="57.31"/><line class="cls-4" x1="52.36" y1="57.31" x2="52.36" y2="57.31"/><line class="cls-5" x1="49.83" y1="57.31" x2="39.69" y2="57.31"/><line class="cls-4" x1="39.69" y1="57.31" x2="39.69" y2="57.31"/><line class="cls-5" x1="39.69" y1="54.78" x2="39.69" y2="44.64"/><line class="cls-4" x1="39.69" y1="44.64" x2="39.69" y2="44.64"/><line class="cls-5" x1="42.23" y1="44.64" x2="52.36" y2="44.64"/><circle class="cls-6" cx="39.63" cy="44.64" r="0.71"/><circle class="cls-6" cx="52.36" cy="44.64" r="0.71"/><circle class="cls-6" cx="52.36" cy="57.31" r="0.71"/><circle class="cls-6" cx="39.69" cy="57.31" r="0.71"/></g></g></svg>