<svg xmlns="http://www.w3.org/2000/svg" viewBox="0 0 172.26 109.95"><defs><style>.cls-1,.cls-3{fill:none;}.cls-1,.cls-2,.cls-3{stroke:#0f8;stroke-miterlimit:10;}.cls-1,.cls-2{stroke-width:0.41px;}.cls-4{fill:#0f8;}</style></defs><title>Ресурс 31</title><g id="Слой_2" data-name="Слой 2"><g id="Layer_1" data-name="Layer 1"><line class="cls-1" x1="144.61" y1="32.65" x2="158.97" y2="47.01"/><circle class="cls-2" cx="144.61" cy="32.65" r="1.31"/><circle class="cls-2" cx="158.97" cy="47.01" r="1.31"/><line class="cls-1" x1="137.98" y1="32.65" x2="152.34" y2="47.01"/><circle class="cls-2" cx="137.98" cy="32.65" r="1.31"/><circle class="cls-2" cx="152.34" cy="47.01" r="1.31"/><line class="cls-1" x1="131.35" y1="32.65" x2="145.71" y2="47.01"/><circle class="cls-2" cx="131.35" cy="32.65" r="1.31"/><circle class="cls-2" cx="145.71" cy="47.01" r="1.31"/><line class="cls-1" x1="124.72" y1="32.65" x2="139.08" y2="47.01"/><circle class="cls-2" cx="124.72" cy="32.65" r="1.31"/><circle class="cls-2" cx="139.08" cy="47.01" r="1.31"/><line class="cls-1" x1="118.09" y1="32.65" x2="132.45" y2="47.01"/><circle class="cls-2" cx="118.09" cy="32.65" r="1.31"/><circle class="cls-2" cx="132.45" cy="47.01" r="1.31"/><line class="cls-1" x1="27.65" y1="32.65" x2="13.29" y2="47.01"/><circle class="cls-2" cx="27.65" cy="32.65" r="1.31"/><circle class="cls-2" cx="13.29" cy="47.01" r="1.31"/><line class="cls-1" x1="34.28" y1="32.65" x2="19.92" y2="47.01"/><circle class="cls-2" cx="34.28" cy="32.65" r="1.31"/><circle class="cls-2" cx="19.92" cy="47.01" r="1.31"/><line class="cls-1" x1="40.91" y1="32.65" x2="26.56" y2="47.01"/><circle class="cls-2" cx="40.91" cy="32.65" r="1.31"/><circle class="cls-2" cx="26.56" cy="47.01" r="1.31"/><line class="cls-1" x1="47.54" y1="32.65" x2="33.19" y2="47.01"/><circle class="cls-2" cx="47.54" cy="32.65" r="1.31"/><circle class="cls-2" cx="33.19" cy="47.01" r="1.31"/><line class="cls-1" x1="54.17" y1="32.65" x2="39.82" y2="47.01"/><circle class="cls-2" cx="54.17" cy="32.65" r="1.31"/><circle class="cls-2" cx="39.82" cy="47.01" r="1.31"/><path class="cls-3" d="M165.71,102.74h0V49.05h5.35L150.37,28.36H101.13L86.24,1.05,60.7,48.76v54h-4v6.71H75.62V88.85c0-14.1,10.6-25.53,10.6-25.53s10.6,11.43,10.6,25.53v20.6h72.9v-6.71ZM154,94.65H142.33v-17c0-7.77,5.84-14.06,5.84-14.06S154,69.85,154,77.62Z"/><path class="cls-3" d="M2.54,102.74v6.71h72.9V88.85c0-14.1,10.6-25.53,10.6-25.53s10.6,11.43,10.6,25.53v20.6h18.94v-6.71h-4v-54L86.24,1.05,71.13,28.36H21.89L1.21,49.05H6.56v53.68h-4ZM18.26,77.62c0-7.77,5.84-14.06,5.84-14.06s5.84,6.3,5.84,14.06v17H18.26Z"/><path class="cls-3" d="M126.08,94.65H114.4v-17c0-7.77,5.84-14.06,5.84-14.06s5.84,6.3,5.84,14.06Z"/><path class="cls-3" d="M46.18,77.62c0-7.77,5.84-14.06,5.84-14.06s5.84,6.3,5.84,14.06v17H46.18Z"/><path class="cls-1" d="M43.17,77.24a21.65,21.65,0,0,1,8.76-17.75s8.76,4.79,8.76,17.75V98H43.17Z"/><path class="cls-1" d="M157.11,77.24a21.65,21.65,0,0,0-8.76-17.75s-8.76,4.79-8.76,17.75V98h17.52Z"/><path class="cls-1" d="M15.15,77.24a21.65,21.65,0,0,1,8.76-17.75s8.76,4.79,8.76,17.75V98H15.15Z"/><path class="cls-1" d="M129.09,77.24a21.65,21.65,0,0,0-8.76-17.75s-8.76,4.79-8.76,17.75V98h17.52Z"/><circle class="cls-3" cx="86.09" cy="42.25" r="13.61"/><path d="M86.09,44.87a.5.5,0,0,1-.47-.32l-5.2-13.27a.5.5,0,0,1,.47-.68,5.66,5.66,0,0,1,3.17,1A5.65,5.65,0,0,1,85.74,28a.5.5,0,0,1,.7,0,5.65,5.65,0,0,1,1.67,3.57,5.65,5.65,0,0,1,3.17-1,.5.5,0,0,1,.47.68l-5.2,13.27A.5.5,0,0,1,86.09,44.87Z"/><path class="cls-4" d="M86.09,28.35a5.19,5.19,0,0,1,1.51,4.28h0a5.18,5.18,0,0,1,3.68-1.52l-5.2,13.27L80.89,31.1a5.18,5.18,0,0,1,3.68,1.52h0a5.27,5.27,0,0,1,0-.59,5.18,5.18,0,0,1,1.55-3.7m5.2,2.75h0m-5.2-3.75a1,1,0,0,0-.7.29,6.16,6.16,0,0,0-1.71,3.12,6.17,6.17,0,0,0-2.79-.66A1,1,0,0,0,80,31.46l5.2,13.27a1,1,0,0,0,1.86,0L92.2,31.52a1,1,0,0,0-.9-1.42h0a6.17,6.17,0,0,0-2.79.66,6.16,6.16,0,0,0-1.71-3.12,1,1,0,0,0-.7-.29Z"/><path d="M84.5,51.68l-.14,0a11.11,11.11,0,0,1-8-10.64,14.14,14.14,0,0,1,.19-2.24c-2.68-1-4.38-3.09-4.38-5.45a.5.5,0,0,1,.82-.39,7.64,7.64,0,0,0,4.83,1.6l.53,0h0a.5.5,0,0,1,.47.32L85,51a.5.5,0,0,1-.47.68Z"/><path class="cls-4" d="M72.65,33.33A8.18,8.18,0,0,0,77.79,35l.56,0L84.5,51.18A10.57,10.57,0,0,1,76.84,41a13.72,13.72,0,0,1,.25-2.58c-2.61-.82-4.45-2.8-4.45-5.11m0-1a1,1,0,0,0-1,1c0,2.46,1.67,4.65,4.33,5.77A14.46,14.46,0,0,0,75.84,41a11.61,11.61,0,0,0,8.38,11.12,1,1,0,0,0,1.21-1.32L79.29,34.66a1,1,0,0,0-.93-.64h-.06l-.5,0a7.24,7.24,0,0,1-4.51-1.48,1,1,0,0,0-.63-.22Z"/><path d="M87.84,51.68a.5.5,0,0,1-.47-.68l6.15-16.16a.5.5,0,0,1,.47-.32h0l.53,0a7.64,7.64,0,0,0,4.83-1.6.5.5,0,0,1,.82.39c0,2.36-1.71,4.46-4.38,5.45A14.14,14.14,0,0,1,96,41a11.11,11.11,0,0,1-8,10.64Z"/><path class="cls-4" d="M99.7,33.33c0,2.32-1.84,4.3-4.45,5.11A13.72,13.72,0,0,1,95.5,41a10.57,10.57,0,0,1-7.66,10.16L94,35l.56,0a8.18,8.18,0,0,0,5.14-1.71m0-1a1,1,0,0,0-.63.22A7.24,7.24,0,0,1,94.56,34l-.5,0H94a1,1,0,0,0-.93.64L86.91,50.82a1,1,0,0,0,1.21,1.32A11.61,11.61,0,0,0,96.5,41a14.18,14.18,0,0,0-.13-1.92C99,38,100.7,35.79,100.7,33.33a1,1,0,0,0-1-1Zm0,2h0Z"/></g></g></svg>