<svg xmlns="http://www.w3.org/2000/svg" viewBox="0 0 82.21 48"><defs><style>.cls-1{fill:#fff;}</style></defs><title>Ресурс 20</title><g id="Слой_2" data-name="Слой 2"><g id="Layer_1" data-name="Layer 1"><path class="cls-1" d="M15.68,29.69c.82,0,1.72-.6,1.77-2.07a2.7,2.7,0,0,0-.56-1.9,1.83,1.83,0,0,0-1.25-.52c-1.08,0-1.72.95-1.72,2.2C13.92,29,14.87,29.69,15.68,29.69Zm.13,5.13c0-.9-.65-.9-1-.95H13.27v1.9h1.46C15,35.76,15.81,35.76,15.81,34.82ZM0,0V48H82.21V0ZM40.55,34H38.74V39.6H37V34H35.16V32.57h5.43V34Zm-10.86-10h5.17v1.38H31.41v1.29h3.23v1.34H31.41V29.6h3.75V31H29.69ZM18.79,39.6v-7H24V34H20.55v1.29h3.23v1.34H20.55v1.68H24.3v1.38H18.79Zm6.55,0v-7h2.24a4.65,4.65,0,0,1,3.06.82,3.41,3.41,0,0,1,1,2.63,4.77,4.77,0,0,1-.17,1.34,3.23,3.23,0,0,1-3.36,2.24Zm7.28,0v-7h1.77v7ZM20.25,23.91h2.59l1.08,4L24.17,29c.09-.47.13-.52.17-.86l1.12-4.22H28v7H26.33l.13-5v-.69l0,.26c-.09.39-.09.43-.17.73L24.9,31H23.4L22.1,26.46l-.3-1.25a13,13,0,0,1,0,1.34L22,30.94H20.25Zm-4.61-.22a3.4,3.4,0,0,1,1.29.22c2.15.73,2.28,3.1,2.28,3.58a3.79,3.79,0,0,1-1.34,2.93,3.38,3.38,0,0,1-2.2.73,3.46,3.46,0,0,1-3.49-3.75A3.46,3.46,0,0,1,15.64,23.7Zm-4.09,8.88h3.15a2.78,2.78,0,0,1,2.28.73,2.27,2.27,0,0,1,.56,1.55,1.86,1.86,0,0,1-1.42,1.94l1.64,2.8H15.81l-1.38-2.5H13.31v2.5H11.55ZM5,23.91H6.76v2.54H9.35V23.91h1.77v7H9.35v-3H6.76v3H5Zm2.84,8.45a3.23,3.23,0,0,1,3,1.81l-1.38.69a1.77,1.77,0,0,0-.52-.73A1.6,1.6,0,0,0,8,33.78c-1.12,0-1.72,1.08-1.72,2.24,0,1.55.78,2.33,1.72,2.33a1.68,1.68,0,0,0,1.51-1l1.38.69a3.88,3.88,0,0,1-1.08,1.21,3.39,3.39,0,0,1-1.94.6c-1.85,0-3.36-1.34-3.36-3.75A3.45,3.45,0,0,1,7.84,32.36ZM77.26,43.78H75.71V9.57l-9-3.36V43.73H5V42.14H50.15V8.4L66.7,4.35,77.26,8.49V43.78Zm-47.4-7.67a2.17,2.17,0,0,0-.39-1.42A1.74,1.74,0,0,0,27.83,34h-.69v4.14h.52C28.57,38.18,29.86,38.09,29.86,36.11Z"/></g></g></svg>