<svg xmlns="http://www.w3.org/2000/svg" viewBox="0 0 106.58 36"><defs><style>.cls-1{fill:#fff;}</style></defs><title>Ресурс 21</title><g id="Слой_2" data-name="Слой 2"><g id="Layer_1" data-name="Layer 1"><path class="cls-1" d="M82.06,19.87c-.17.17-.17.26-.17.26a.27.27,0,0,0,.17-.09c.09-.09.26-.17.35-.35s.35-.26.52-.43l.69-.69.26-.26-1,.87A5.39,5.39,0,0,0,82.06,19.87Z"/><path class="cls-1" d="M106.44,5.55a4.88,4.88,0,0,1-.17-.87,1.14,1.14,0,0,0-1.21-1,.85.85,0,0,1-.69-.26c-.09-.09-.17-.09-.35-.17a3.76,3.76,0,0,1-.43-.09c-.17,0-.17.09-.17.09,0,.17-.09.26-.35.35-1.65,1.3-2.6,2-2.6,2.08s-.17.17-.35.09-.09-.09.09-.09.26-.26.52-.69a2.11,2.11,0,0,0,.35-1,.66.66,0,0,0-.17-.43c0-.09-.09-.17-.26-.52-.09-.09-.09-.17-.17-.09s-.17-.09-.43-.35c-.09-.09-.17-.17-.26-.17h-.09q0,.13-.26,0a.19.19,0,0,1-.17-.17.27.27,0,0,0-.09-.17,1.2,1.2,0,0,0-.35-.26.32.32,0,0,0-.26-.09.32.32,0,0,1-.26-.09c-.09-.09-.17-.09-.26-.17h-.35c-.17.09-.17.17-.17.26s0,.17-.09.17a1.93,1.93,0,0,1-.35.43c-.17.35-.35.61-.43.78a2.38,2.38,0,0,0-.35.61,7.63,7.63,0,0,1-.43.87,9.15,9.15,0,0,0-.69,1.13c-.09.35-.26.52-.35.52s-.17.09-.17.35a7.63,7.63,0,0,1-.43.87c-.17.35-.35.61-.43.78a.27.27,0,0,1-.09.17.3.3,0,0,1-.09.17v.26q.13.13.52-.52c.35-.52.61-.87.69-1a6.73,6.73,0,0,0,.35-.61,1,1,0,0,1,.35-.35,1.11,1.11,0,0,0,.43-.61A4.77,4.77,0,0,1,96.55,5l.35-.52-.17.69A11.86,11.86,0,0,1,95.33,8a4.9,4.9,0,0,0-.78,1.47,23.61,23.61,0,0,1-1.65,3A22.9,22.9,0,0,0,91.6,15c-.09.35-.17.61-.26.61a2.8,2.8,0,0,0-.17.52l-.78,1.56a1.81,1.81,0,0,1-.35.52c-.09.26-.26.43-.26.52s-.09.26-.17.26c-.09.17-.26.35-.35.35s-.35.09-.69.17c-.52.09-1.21.26-2.08.43a10.53,10.53,0,0,0,.87-1.21,9,9,0,0,1,.61-1,9.18,9.18,0,0,1,.61-.87,6.09,6.09,0,0,0,.61-1c.35-.61.52-1,.52-1a.27.27,0,0,1,.09-.17c0-.09.09-.17.17-.35s.09-.26.17-.43a7.35,7.35,0,0,0,.61-1.3,1.4,1.4,0,0,1,.26-.78.67.67,0,0,1,.09-.26,1.47,1.47,0,0,1,.17-.43c.09-.17.09-.35.17-.52a6.21,6.21,0,0,0,.17-3.73,5.56,5.56,0,0,0-.52-1.82c-.09,0-.17-.09-.17-.35a2.57,2.57,0,0,0-.26-.35c-.09,0-.09,0-.09-.09s-.26-.43-.78-.78A2.77,2.77,0,0,1,89.18,3a2.15,2.15,0,0,1-.52-.35c-.26-.09-.35-.17-.35-.26l-.09-.09A3.05,3.05,0,0,1,87.35,2c-.87-.26-1.39-.43-1.47-.43A9.5,9.5,0,0,0,84,1.39a8.51,8.51,0,0,0-1.73.09,5.25,5.25,0,0,1-1.3.17,23.59,23.59,0,0,0-3.82,1.13c-.17.09-.43.09-.61.17s-.35.17-.52.17a.3.3,0,0,0-.17.09v.26h-.26a.85.85,0,0,1-.69-.26c-.09-.09-.17-.09-.35-.17a3.76,3.76,0,0,1-.43-.09c-.17,0-.17.09-.17.09,0,.17-.09.26-.35.35-1.65,1.3-2.6,2-2.6,2.08s-.17.17-.35.09-.09-.09.09-.09.26-.26.52-.69a2.11,2.11,0,0,0,.35-1,.66.66,0,0,0-.17-.43c0-.09-.09-.17-.26-.52C71,2.78,71,2.69,71,2.78s-.17-.09-.43-.35c-.09-.09-.17-.17-.26-.17h-.09q0,.13-.26,0a.19.19,0,0,1-.17-.17.27.27,0,0,0-.09-.17,1.2,1.2,0,0,0-.35-.26.32.32,0,0,0-.26-.09.32.32,0,0,1-.26-.09c-.09-.09-.17-.09-.26-.17h-.35c-.17.09-.17.17-.17.26s0,.17-.09.17a1.93,1.93,0,0,1-.35.43c-.17.35-.35.61-.43.78a2.38,2.38,0,0,0-.35.61,7.62,7.62,0,0,1-.43.87,9.15,9.15,0,0,0-.69,1.13c-.09.35-.26.52-.35.52s-.17.09-.17.35a7.62,7.62,0,0,1-.43.87c-.17.35-.35.61-.43.78a.27.27,0,0,1-.09.17.3.3,0,0,1-.09.17v.26q.13.13.52-.52c.35-.52.61-.87.69-1a6.73,6.73,0,0,0,.35-.61A1,1,0,0,1,66,6.16a1.11,1.11,0,0,0,.43-.61,4.77,4.77,0,0,1,.61-.78l.35-.52-.17.69a11.86,11.86,0,0,1-1.39,2.78,4.9,4.9,0,0,0-.78,1.47,23.61,23.61,0,0,1-1.65,3,22.9,22.9,0,0,0-1.3,2.52c-.09.35-.17.61-.26.61a2.8,2.8,0,0,0-.17.52l-.78,1.56a1.81,1.81,0,0,1-.35.52c-.09.26-.26.43-.26.52s-.09.26-.17.26c-.09.17-.26.35-.35.35s-.35.09-.69.17c-.69.17-1.73.35-3,.69h0c.09-.17.17-.52.35-1s.35-.78.43-1a1.9,1.9,0,0,0,.26-.78,3.58,3.58,0,0,1,.35-.78,1.34,1.34,0,0,0,.26-.52V15.7h0a.08.08,0,0,1,.09.09l.09.09c.09,0,.09-.17.17-.52a1.16,1.16,0,0,0,.09-.43l.09-.35a12.29,12.29,0,0,1,.69-1.47l.52-1.3c0-.17,0-.26.09-.35s.09-.09.09-.26,0-.26.09-.26.09-.09.09-.17a1.07,1.07,0,0,1,.17-.26l.09-.09c0-.09,0-.09.09-.17s.17-.17.17-.26-.09-.17,0-.35.17-.43.35-.78c0-.09,0-.17.09-.17s.09-.09.09-.35a1.15,1.15,0,0,1,.26-.69,8,8,0,0,0,.43-.69c.09-.17.09-.35,0-.35a.08.08,0,0,1,.09-.09l.09-.09a.08.08,0,0,0,.09-.09,2.67,2.67,0,0,1,.52-1.65V4.42a.19.19,0,0,1,.17-.17.08.08,0,0,0,.09-.09c-.09-.09,0-.17.09-.43s.17-.43.09-.43a.3.3,0,0,1-.09-.17c.09-.09.09-.09.17,0s.09-.09.17-.35a.32.32,0,0,1,.09-.26.3.3,0,0,1,.09-.17V2.26a.08.08,0,0,1,.09-.09c.09,0,.09,0,.09-.09S63.24,2,63.15,2s-.09-.09-.09-.26-.09-.17-.26-.26l-.35-.17A1.9,1.9,0,0,0,61.76,1,2.44,2.44,0,0,0,61.07,1a1.4,1.4,0,0,1-.78-.26c-.09,0-.17-.09-.35-.09s-.09,0-.09-.09c-.17-.09-.17-.09-.17,0a.08.08,0,0,1-.09.09c-.09,0-.17.09-.26.09h-.09a1.37,1.37,0,0,1-.35.09,8.83,8.83,0,0,1-.35,1.39C58,3.73,57.6,5,57.43,5.81A11.59,11.59,0,0,1,57,7a24.33,24.33,0,0,0-1.13,3.64v.26a1.34,1.34,0,0,0,.26-.61,1.41,1.41,0,0,1,.26-.52q.26-.26.26,0a.3.3,0,0,1-.09.17c-.09,0-.09.09-.17.17a1.47,1.47,0,0,1-.17.43,1.37,1.37,0,0,0-.26.69,2.62,2.62,0,0,1-.26.78,3.52,3.52,0,0,0-.52,1c-.26.61-.43.87-.43,1s0,.09-.09.09-.09.09-.09.17,0,.17-.09.17-.09.09-.09.17v.09H54.3c-.09-.09-.09-.09-.09.09a3.58,3.58,0,0,1-.43,1c-.26.52-.43.87-.52.87s-.26.26-.43.78l-.35.69A4.59,4.59,0,0,0,52,19.17c-.09.26-.17.43-.26.43v-.43a17.06,17.06,0,0,0,.17-2.26c0-.61,0-1,.09-1l.09-1c0-.26,0-1,.09-2a2.58,2.58,0,0,1,.17-1.21c.09-.09.09-.26.09-.61,0-.09.09-.43.17-1A9.11,9.11,0,0,0,52.74,9a23.45,23.45,0,0,0,.43-3.73A5.42,5.42,0,0,0,53,3.73a1,1,0,0,0-.52-.52,1.22,1.22,0,0,0-.78-.09c-.17,0-.26.09-.35.09s-.17.09-.17.17v.17a.16.16,0,0,1,0,.26c-.09.09-.17.17-.26.17s-.17,0-.35.09l-.43.17c-.17,0-.26,0-.26.09s-.09.09-.17.09-.26,0-.26.09a.3.3,0,0,1-.17.09c-.17-.09-.26,0-.35.09a1.93,1.93,0,0,0-.43.35c-.26.09-.43.09-.43,0S48,4.86,48,5V5.2c0-.17-.09-.35-.09-.52a4.88,4.88,0,0,1-.17-.87,1.14,1.14,0,0,0-1.21-1,.85.85,0,0,1-.69-.26c-.09-.09-.17-.09-.35-.17A3.76,3.76,0,0,1,45,2.34c-.17,0-.17.09-.17.09,0,.17-.09.26-.35.35-1.65,1.3-2.6,2-2.6,2.08s-.17.17-.35.09-.09-.09.09-.09.26-.26.52-.69a2.11,2.11,0,0,0,.35-1,.66.66,0,0,0-.17-.43c0-.09-.09-.17-.26-.52-.09-.09-.09-.17-.17-.09s-.17-.09-.43-.35c-.09-.09-.17-.17-.26-.17h-.09q0,.13-.26,0a.19.19,0,0,1-.17-.17.27.27,0,0,0-.09-.17A1.2,1.2,0,0,0,40.25,1,.32.32,0,0,0,40,1a.32.32,0,0,1-.26-.09c-.09-.09-.17-.09-.26-.17h-.35c-.17.09-.17.17-.17.26s0,.17-.09.17a1.93,1.93,0,0,1-.35.43c-.17.35-.35.61-.43.78a2.38,2.38,0,0,0-.35.61,7.62,7.62,0,0,1-.43.87,9.15,9.15,0,0,0-.69,1.13c-.09.35-.26.52-.35.52s-.17.09-.17.35a7.62,7.62,0,0,1-.43.87c-.17.35-.35.61-.43.78a.27.27,0,0,1-.09.17.3.3,0,0,1-.09.17v.26q.13.13.52-.52c.35-.52.61-.87.69-1a6.73,6.73,0,0,0,.35-.61A1,1,0,0,1,37,5.55a1.11,1.11,0,0,0,.43-.61A4.77,4.77,0,0,1,38,4.16l.35-.52-.17.69a11.86,11.86,0,0,1-1.39,2.78A4.9,4.9,0,0,0,36,8.59a23.61,23.61,0,0,1-1.65,3,22.9,22.9,0,0,0-1.3,2.52c-.09.35-.17.61-.26.61a2.8,2.8,0,0,0-.17.52l-.78,1.56a1.81,1.81,0,0,1-.35.52c-.09.26-.26.43-.26.52s-.09.26-.17.26c-.09.17-.26.35-.35.35s-.35.09-.69.17c-.78.17-2,.43-3.56.87a.32.32,0,0,0-.09-.26.86.86,0,0,1-.09-.35.86.86,0,0,0-.09-.35,1.52,1.52,0,0,1-.09-.43c0-.09,0-.09-.09-.09s-.09-.17-.09-.61a.57.57,0,0,0-.09-.52.32.32,0,0,1-.09-.26l-.09-.17V16a.41.41,0,0,0-.09-.52.86.86,0,0,1-.09-.35.27.27,0,0,0-.09-.17c-.09,0-.09-.17-.17-.43s-.09-.43,0-.52L25.16,14v-.09a.08.08,0,0,0,.09-.09c.09-.09.09-.09,0-.09h-.09a.32.32,0,0,1,.09-.26c.09-.09.09-.09,0-.09a.08.08,0,0,1-.09-.09q0-.13,1-1c1-.87,1.65-1.39,1.65-1.56l.35-.26c.17-.17.26-.26.26-.35s.09-.09.17-.26.17-.17.26-.17A.08.08,0,0,0,29,9.54c0-.09,0-.09.09-.09a.66.66,0,0,0,.43-.17.3.3,0,0,0,.09-.17L29.67,9h.09l.43-.43c.17-.17.26-.35.43-.43-.17.09-.26.09-.17,0a4.51,4.51,0,0,0,.43-.26.27.27,0,0,1,.17-.09.08.08,0,0,0,.09-.09l.17-.17.43-.43a5,5,0,0,1,.61-.69c.17-.17.26-.26.26-.35L32.7,6l.17-.17A.32.32,0,0,0,33,5.55l.09-.09.17-.17a5.31,5.31,0,0,0,.43-.52c.43-.43.69-.78.69-1a1,1,0,0,0,.17-.35,1.9,1.9,0,0,0,.26-.69,1.35,1.35,0,0,0-.09-.87,4.23,4.23,0,0,1-.26-.61c-.09-.17-.17-.35-.26-.35A.19.19,0,0,1,34,.69,3.2,3.2,0,0,0,32.62.17,13.61,13.61,0,0,0,30.36.09a8.09,8.09,0,0,0-2,.09h-.26c-.17,0-.26.09-.35.09a2.43,2.43,0,0,1-.52.09,1.29,1.29,0,0,1-.61.09H26.2a2.8,2.8,0,0,1-.52.17,5.46,5.46,0,0,0-1.13.26,5.66,5.66,0,0,1-1,.17,1.16,1.16,0,0,0-.43.09,2.55,2.55,0,0,1-.78.26c-.17,0-.09,0,.09-.09s.17-.09.26-.17S23.25,1,24,.69a1.25,1.25,0,0,1,.61-.17c.09,0,.17-.09.35-.09a.38.38,0,0,0,.26-.09A.32.32,0,0,1,25.5.26a.27.27,0,0,0,.17-.09c.09,0,.17,0,.17-.09L25.94,0a1.52,1.52,0,0,0-.43.09,7.91,7.91,0,0,1-1.39.26,10.09,10.09,0,0,0-1.56.35,2,2,0,0,1-.87.35,11.55,11.55,0,0,0-1.21.52,9.92,9.92,0,0,1-1.21.52,3.25,3.25,0,0,0-.87.52,1.25,1.25,0,0,0-.61.52c-.17-.17-.35-.26-.52-.43a4.83,4.83,0,0,0-1.65-1,17,17,0,0,0-2.86-.17,20.28,20.28,0,0,0-3.9.26,11.18,11.18,0,0,1-2.17.52,8.07,8.07,0,0,0-1.56.52,3.72,3.72,0,0,1-.87.26,1.07,1.07,0,0,1,.26-.17L5,2.69a1.47,1.47,0,0,1,.43-.17c.17-.09.26-.09.26-.17s.17-.17.52-.35a3.5,3.5,0,0,0,1-.35c.09-.09.17-.09.35-.09a5.53,5.53,0,0,1,.78-.17c.43-.09.69-.09.78-.17s.17,0,.17-.09S9.28,1,9.2,1H8.93l-.87.17a15.27,15.27,0,0,0-3.47.87C2.95,2.95,2.08,3.47,2,3.73c-.09.09,0,.26.09.43a.27.27,0,0,1,.09.17v.09c-.17.09-.17.17.09.43a.86.86,0,0,1,.09.35c-.09.09-.09.09.09.09s.09.09.09.17a.16.16,0,0,0,0,.26c.09.09.09.17.09.35s0,.17.09.17L3,6.42c0,.09.17.17.35.26.35.17.78,0,1.47-.43A2.45,2.45,0,0,1,5.38,6h.17a.08.08,0,0,0,.09-.09.08.08,0,0,0,.09-.09A5.76,5.76,0,0,1,7.2,5.12,8,8,0,0,1,9.11,4.6a2.79,2.79,0,0,0,.69-.09,18.31,18.31,0,0,1,3.3-.35h2.52a4.48,4.48,0,0,1,1,.17,1.34,1.34,0,0,1,.61.26l.17.09c.17.09.17.35.09.87A10.49,10.49,0,0,1,17,7.11a.86.86,0,0,0-.17.52.27.27,0,0,1-.09.17.3.3,0,0,1-.09.17,2.17,2.17,0,0,0-.35.61,1.07,1.07,0,0,1-.17.26A.54.54,0,0,1,16,9.2c-.17.17-.26.35-.43.43s-.52.52-1,1.13l-.09.09a.27.27,0,0,0,.17-.09.19.19,0,0,0,.17-.17c0-.09.17-.26.52-.69A8.09,8.09,0,0,1,16.13,9c.17-.17.35-.35.35-.43a3.2,3.2,0,0,1,.35-.78,2.52,2.52,0,0,0,.43-.87,2.85,2.85,0,0,1,.26-.52l.09-.09v.26a4.91,4.91,0,0,1-.52,1,9.71,9.71,0,0,1-1.56,2c-.52.61-.87,1-1.13,1.3h-.17s-.09-.09,0-.09l.09-.09c0-.09-.26.09-.78.61A9.81,9.81,0,0,1,11.45,13a5.47,5.47,0,0,0-1.3,1,.54.54,0,0,1-.35.17l-.43.35c.43-1,.69-1.73.87-2.17v-.17a1.07,1.07,0,0,0-.26-.17.19.19,0,0,1-.17-.17,4.6,4.6,0,0,0,.26-1,5.84,5.84,0,0,0,.09-.87,2.8,2.8,0,0,0,.17-.52,7.07,7.07,0,0,0,.17-.78,8.32,8.32,0,0,0,.26-1.3,1.53,1.53,0,0,0,.09-.52c0-.09,0-.09-.09-.09s-.17,0-.17-.09-.09-.17-.17-.26-.17-.17-.26-.17-.17-.09-.26-.17a1.1,1.1,0,0,0-.52-.09,2.07,2.07,0,0,1-.78-.17c-1,1.47-1.13,1.39-1.3,1.47-.35.09-.52.17-.61.17a.66.66,0,0,1-.35.09c-.26-.09-.43.09-.61.43A33.64,33.64,0,0,0,4.51,12.4q0,.13-.26,1.56a3.19,3.19,0,0,1-.35.87.66.66,0,0,0-.09.35c0,.09,0,.09.09.09.26-.17.52-1,.78-2.43a1.38,1.38,0,0,1,.26-.69,1.34,1.34,0,0,1,.26-.61c.09-.17.17-.43.26-.61l.09-.35a.45.45,0,0,0,.17-.35.27.27,0,0,1,.09-.17c0-.09.09-.17.09-.26S6,9.63,6,9.54a.3.3,0,0,1,.09-.17s.09-.09.09,0l-.09.43a4.23,4.23,0,0,1-.26.61c-.09.26-.26,1-.61,2.43l-.26,1a.93.93,0,0,0-.43.26c-.09.09-.09.35-.09.69A6.8,6.8,0,0,1,4.25,16c0,.09-.09.26-.09.35l-.26.78a9,9,0,0,1-.35.87c-.09.17-.09.35-.17.35a.27.27,0,0,1-.09.17c-.09.26-.26.52-.26.61H2.34a1.89,1.89,0,0,0-.52.09c-.09.09-.09.17-.09.35a.08.08,0,0,0,.09.09c0,.09,0,.09-.17.09s-.17,0-.35.17-.09.35.09.43a.08.08,0,0,1,.09.09v.09c-.09.09,0,.17.09.17s.09,0,0,.09-.09.17,0,.17v.26a.66.66,0,0,0,.09.35,1,1,0,0,0,.43.43l.17.26c0,.09,0,.09-.09.17L2,23a8.06,8.06,0,0,0-.35,1.13,5.38,5.38,0,0,1-.26,1l-.35,1a2.8,2.8,0,0,1-.17.52A3.29,3.29,0,0,0,.43,28c0,.09-.09.09-.09.17-.17.43-.26.69-.26.69a2.7,2.7,0,0,0-.09,1c.09.43.09.61.17.61l.09-.09c0-.09.09-.09.35.09s.26.17.26.26A.08.08,0,0,0,1,30.8H1a.66.66,0,0,1-.17.35v.17c0-.09.09-.09.17-.17s0,.17-.09.43-.09.26,0,.26a.56.56,0,0,0,.43-.17c.09-.17.17-.35.26-.35s.09-.09.09.09v.17l.09-.17L2,31.06h.26a2.07,2.07,0,0,1-.26.61l-.17.26.26-.09.17-.09c.09,0,.09.17-.09.52s-.09.43,0,.43a.34.34,0,0,1,.09.43,1.16,1.16,0,0,0-.09.43c0,.17.43-.61,1.21-2.43l.78-1.65c.17-.35.17-.35,0-.09v.09h0c-.09.09-.09.17-.17.17a.27.27,0,0,1,.09-.17c0-.09.09-.17.09-.26v-.17a6.86,6.86,0,0,0,.35-1.13,1.23,1.23,0,0,1,.17-.52.86.86,0,0,0,.09-.35.9.9,0,0,0,.09-.35c.09-.17.09-.26.17-.35l.17-.61a6,6,0,0,0,.26-.69h0v.09l.09-.52c.17-.43.43-1,.69-1.47.35-.87.69-1.56.87-2.08H7.2c0-.09.09-.17.26-.17a2.06,2.06,0,0,0,1-.52c.52-.26.78-.52,1-.61s.52-.35.87-.52c.43-.35.78-.52.87-.61a7.51,7.51,0,0,0,1-.78c.26-.26.61-.52,1.13-1,.26-.17.61-.52,1.21-1l1.3-1.3c.52-.52.87-.78.87-.87a5.31,5.31,0,0,0,1.39-1.82c0-.09,0-.09.09-.09l.26-.35a5.14,5.14,0,0,1,.35-.52c-.26,0-.26-.09-.26-.09v-.09q.26-.13.52-1.82a7.59,7.59,0,0,0-.26-2.08h.26c.09,0,.17,0,.17-.09s0-.09.09-.09a.66.66,0,0,0,.35-.09c.09-.09.17-.09.17-.17A.3.3,0,0,1,20,6.33a.32.32,0,0,0,.26-.09c0-.09.09-.09.17-.09h.09a.27.27,0,0,0,.17-.09A.32.32,0,0,1,21,6a3.41,3.41,0,0,0,.52-.17,1.22,1.22,0,0,0,.43-.26l.09.09.09-.09a.67.67,0,0,1,.26-.09.27.27,0,0,0,.17-.09c0-.09,0-.09.09-.09l.26-.09A.73.73,0,0,1,23.42,5h.43A.3.3,0,0,1,24,4.94a.48.48,0,0,0,.43-.26h.09c.09.09.17,0,.35-.09s.17-.09.26-.09a.67.67,0,0,1,.26-.09c.69-.09,1.13-.26,1.13-.35h.09L26.72,4c.09-.09.17-.09.17,0s.17.09.35,0,.35-.09.35-.17h.09a.32.32,0,0,0,.26.09c.09,0,.17-.09.26-.09h-.09a.9.9,0,0,1,.35-.09.66.66,0,0,0,.43-.17.27.27,0,0,1,.17-.09l.09.09h.35A13.69,13.69,0,0,1,32,3.64a.3.3,0,0,1,.17.09V3.9c0,.09-.09.17-.09.26A14,14,0,0,1,29,7.37c-.52.43-.87.69-1.13,1a3.84,3.84,0,0,0-.87.52,18.4,18.4,0,0,0-1.82,1.21c0,.09,0,.09-.09.09s-.09,0-.26.09-.17.09-.26.17l-.09.09-.09.09a.32.32,0,0,0-.26.09c0,.09-.09.09-.17.09s0-.17.09-.52a2.35,2.35,0,0,1,.26-.69,1.25,1.25,0,0,0,.17-.78.86.86,0,0,0,.17-.52A.32.32,0,0,0,24.55,8a1.9,1.9,0,0,0-.43-.26c-.26-.09-.35-.09-.43,0s-.17.09-.35,0a2.76,2.76,0,0,0-1.13-.17c-.17,0-.26,0-.26-.09a1.25,1.25,0,0,1-.26-.17,1.07,1.07,0,0,1-.26-.17v.26a.45.45,0,0,1-.17.35c-.09,0-.17,0-.17.09H21c-.09,0-.09.09-.09.26a1,1,0,0,1-.26.69,15.71,15.71,0,0,0-1.3,2.52,9.11,9.11,0,0,0-.87,2.43c-.09.26-.09.43,0,.43s.17,0,.17-.09a6.69,6.69,0,0,0,.52-1.3,11.77,11.77,0,0,1,.78-2,2.17,2.17,0,0,1,.35-.61c.09,0,.09.09,0,.17a6.4,6.4,0,0,0-.52,1.21,14.73,14.73,0,0,1-.52,1.56l-.17.43a1.62,1.62,0,0,1-.35.78.73.73,0,0,0-.17.52c0,.09-.09.17-.09.26s-.09.26-.09.35a.3.3,0,0,1-.09.17,1.23,1.23,0,0,0-.17.52c-.09.09-.09.17-.17.17a.86.86,0,0,1-.09.35v.17a3.76,3.76,0,0,0-.09.43.94.94,0,0,0-.09.43c0,.09-.09.17-.09.26s-.09.26-.09.35a.3.3,0,0,1-.09.17,5.54,5.54,0,0,0-.35.87,3.62,3.62,0,0,0-.26.78c0,.09-.09.17-.09.26a.67.67,0,0,0-.09.26c-.26.52-.69,1.73-1.3,3.38,0,.09,0,.09-.09.09v.26c0,.09-.09.17-.09.26a6.86,6.86,0,0,0-.43,1.13,8.07,8.07,0,0,0-.52,1.82,1.52,1.52,0,0,0-.09.43,2.71,2.71,0,0,0-.17.61,8.67,8.67,0,0,1-.61,2.08c-.09,0-.09,0-.09.09a.48.48,0,0,0,.26.43.37.37,0,0,0,.61-.09.66.66,0,0,1,.35-.09c.17,0,.17,0,.17-.09s.09-.09.17-.09a1.47,1.47,0,0,0,.43-.17,1.81,1.81,0,0,1,.52-.35.51.51,0,0,1,.61-.09.08.08,0,0,1,.09.09v-.17c0-.09.09-.09.17-.17s.09-.09.17-.09a.08.08,0,0,1,.09.09q0,.26.26,0a3.21,3.21,0,0,0,.43-1.3c.17-.69.35-1.21.43-1.56a3.72,3.72,0,0,1,.26-.87c.17-.52.26-.87.35-1a2,2,0,0,0,.17-.69l.26-.78c.09-.26.09-.43.17-.43a3.41,3.41,0,0,1,.17-.52,1.37,1.37,0,0,0,.09-.35c.17-.43.52-1.47,1.13-3,0-.09,0-.17.09-.17a1.51,1.51,0,0,1,.26-.61,1.74,1.74,0,0,1,.35-.69,1.07,1.07,0,0,1,.17-.26c.09.09.09.17.09.35.17.78.26,1.21.35,1.21v.17A1.53,1.53,0,0,0,22,20q.13.52.26.52a.27.27,0,0,0,.09.17c0,.09.09.17.17.35s.09.26.17.43a10.33,10.33,0,0,0,1.65,3c.43.52.69,1,.78,1a4.6,4.6,0,0,0,1.3,1.3c0,.09-.09.09-.09.17-.17.35-.35.61-.43.78l-.52,1.3c.09.09.26.17.35.26a2.35,2.35,0,0,0,.69.26h.17c.09,0,.17.09.26.09a.08.08,0,0,1,.09.09c0,.09.09.09.26.09q.91,0,1,.26c.09.09.09.09.17.09s.17-.09.26-.17a1.2,1.2,0,0,0,.26-.35q.13-.26.26-.26l.09-.52c.09-.35.17-.61.17-.61h.09v.43c-.09.26-.09.43,0,.43s.26-.35.43-1a24.73,24.73,0,0,1,1.39-3.64c.52-1,.78-1.56.87-1.73a.87.87,0,0,1,.43-.35A10.49,10.49,0,0,1,34.27,22c.17-.09.43-.09.69-.17a3.41,3.41,0,0,1,.52-.17c.09,0,.17-.09.26-.09s.09,0,.09-.09-.26-.09-.69.09l-.43.09a16.61,16.61,0,0,1,1.91-.61c1.21-.26,1.91-.43,2.08-.43,0,.09-.09.09-.26.17l-.69.43.43-.09h.35a.3.3,0,0,1,.09.17c0,.17,0,.26-.09.26s-.09.17-.09.35l-.17.61-.09.09a6,6,0,0,1-.26.69h0c0,.09-.09.17-.09.26-.09.26-.17.52-.26.87l-.09.09c0,.09-.09.09-.09.17s0,.09-.09.09-.09.26-.17.69-.26.78-.35,1a3.41,3.41,0,0,1-.17.52,3.41,3.41,0,0,0-.17.52.94.94,0,0,0-.09.43v.09c-.35.87-.43,1.3-.26,1.39l.09.43c.09.35.09.43.17.52s.09.09,0,.26v.09c.09,0,.09.09.09.17a3.76,3.76,0,0,1,.09.43c0,.17,0,.26-.09.35v.17c.09-.17.09-.09.17.09a.64.64,0,0,1-.17.52v.17c0-.09.09-.09.17-.17s0,.17-.09.43-.09.26,0,.26a.48.48,0,0,0,.43-.17c.09-.26.17-.35.35-.35s.09-.09.09.09V33l.09-.17.35-.69.17-.43v.61a1.9,1.9,0,0,1-.26.78l-.17.26.26-.09.26-.09q.13,0,0,.52t0,.52c.43-.26.43-.09.43.09a1.16,1.16,0,0,0-.09.43c0,.17.43-.61,1.13-2.52l.69-1.65c.09-.35.09-.35,0-.09v.09h0c-.17.26-.26.35-.26.43l.09-.26c.17-.43.26-.69.17-.87a.78.78,0,0,1,.09-.43h.09c.17,0,.26,0,.26-.09s0-.17,0-.26,0-.26.17-.43a.46.46,0,0,0,.26-.35c0-.17.09-.78.26-1.91a5.7,5.7,0,0,0,.26-1.13,2.69,2.69,0,0,0,.26-1,10.25,10.25,0,0,0,.78-2.69,2.83,2.83,0,0,0,.26-.87,6,6,0,0,0,.35-1.47.75.75,0,0,1,.26-.52c.17-.26.26-.43.17-.52a2.77,2.77,0,0,1,.09-.61c.09-.35.17-.69.26-1a5.53,5.53,0,0,0,.17-.61.67.67,0,0,1,.09-.26c.09-.17.17-.43.26-.61a6,6,0,0,1,.26-.69c.09-.26.17-.69.35-1.3s.26-1,.35-1.13c.17-.52.43-1.13.69-1.73a10.94,10.94,0,0,0,.69-2,3.83,3.83,0,0,1,.26-.69q-.13.78-.26,1.82c0,.26-.17,1-.43,2.43s-.35,2.17-.35,2.26v.26a.94.94,0,0,1-.09.43,3.76,3.76,0,0,1-.09.43,3,3,0,0,0-.09.78c0,.17,0,.17.09-.09V15.7c0-.09.09-.17.09-.26s.09-.17.09-.26a3.08,3.08,0,0,0,.35-.78,8.06,8.06,0,0,1,.35-1.13c.17-.43.26-.69.26-.69a.19.19,0,0,1,.17.17.32.32,0,0,1-.09.26,1.29,1.29,0,0,0-.09.61c0,.35,0,.43-.09.43a1.5,1.5,0,0,0-.09.61c0,.87-.09,1.39-.26,1.39v.09a.66.66,0,0,1-.09.35v.35c0,.52-.09,1.3-.09,2.17s-.09,1.39-.09,1.47c0,.26,0,1-.09,2.17a22,22,0,0,0,0,3.38,6.92,6.92,0,0,0,.26,2.08.61.61,0,0,0,.35.43c.17.09.17.09.17.17a8.65,8.65,0,0,0,1.82.35A1.37,1.37,0,0,0,50,29a.45.45,0,0,1,.35-.17.32.32,0,0,0,.26-.09c.09-.09.26-.17.26-.26a.27.27,0,0,0,.09-.17l.17-.17a3.3,3.3,0,0,0,.43-.52,1.34,1.34,0,0,0,.26-.52L52,26.8a1.37,1.37,0,0,0,.43-.69c.09-.17.09-.35.17-.43s.17-.09.35-.09a1.51,1.51,0,0,1,.61-.26,1.47,1.47,0,0,0,.43-.17A9,9,0,0,1,56,24.72a1.76,1.76,0,0,0,.43-.09q.13,0,0-.26c0-.09-.17-.17-.43-.09a3.25,3.25,0,0,1-.87.09,2.4,2.4,0,0,0-.78.09l-.26.09.26-.09a.54.54,0,0,1,.35-.17c0-.09.26-.17.78-.35.09,0,.26-.09.35-.09s.26-.09.35-.09h.17c.17-.09.26-.09.35,0s0,.26-.09.61c-.09.09-.09.26-.26.43a1.47,1.47,0,0,0-.17.43l-.17.35c-.09,0-.09.09-.09.17A7,7,0,0,1,55.43,27c-.35.61-.52.87-.61.87s-.17-.35-.09-1a3.59,3.59,0,0,1,.17-1.21.66.66,0,0,0,.09-.35h-.09l-.17.17a10.63,10.63,0,0,0-.43,1.13,5.87,5.87,0,0,0-.35,1.3.93.93,0,0,0,.17.69,1.59,1.59,0,0,0,.69.52,2.35,2.35,0,0,0,.69.26h.17c.09,0,.17.09.26.09a.08.08,0,0,1,.09.09c0,.09.09.09.26.09q.91,0,1,.26c.09.09.09.09.17.09s.17-.09.26-.17a1.2,1.2,0,0,0,.26-.35q.13-.26.26-.26l.09-.52c.09-.35.17-.61.17-.61h.09v.43c-.09.26-.09.43,0,.43s.26-.35.43-1a24.73,24.73,0,0,1,1.39-3.64c.52-1,.78-1.56.87-1.73a.87.87,0,0,1,.43-.35,10.49,10.49,0,0,1,1.56-.43c.17-.09.43-.09.69-.17a3.41,3.41,0,0,1,.52-.17c.09,0,.17-.09.26-.09s.09,0,.09-.09-.26-.09-.69.09l-.43.09a16.61,16.61,0,0,1,1.91-.61c1.21-.26,1.91-.43,2.08-.43,0,.09-.09.09-.26.17l-.35.17.43-.09h.35a.3.3,0,0,1,.09.17c0,.17,0,.26-.09.26s-.09.17-.09.35l-.26.87a2.61,2.61,0,0,0-.35,1.13,1.23,1.23,0,0,1-.17.52l-.09.09c0,.09-.09.09-.09.17s0,.09-.09.09-.09.26-.17.69-.26.78-.35,1a3.41,3.41,0,0,1-.17.52,3.41,3.41,0,0,0-.17.52.94.94,0,0,0-.09.43c0,.26.17.26.35.09s.26-.26.26-.35.26-.09.61,0a4.23,4.23,0,0,1,.61.26,4.39,4.39,0,0,1,.78.69c.61.52,1,.78,1.21.78s.26,0,.26-.09,0-.17,0-.26,0-.26.17-.43a.46.46,0,0,0,.26-.35c0-.17.09-.78.26-1.91a5.7,5.7,0,0,0,.26-1.13,5.9,5.9,0,0,0,.35-1.13,1.23,1.23,0,0,1,.17-.52v-.17c0-.09.09-.17.09-.35s.09-.26.09-.35a4.42,4.42,0,0,1,.35-1c.17-.52.26-.87.35-1a6,6,0,0,0,.35-1.47.75.75,0,0,1,.26-.52c.17-.26.26-.43.17-.52a2.77,2.77,0,0,1,.09-.61c.09-.35.17-.69.26-1a5.53,5.53,0,0,0,.17-.61.67.67,0,0,1,.09-.26c.09-.17.17-.43.26-.61a6,6,0,0,1,.26-.69c.09-.26.17-.69.35-1.3s.26-1,.35-1.13c.17-.52.43-1.13.69-1.73a10.94,10.94,0,0,0,.69-2c0-.09.17-.43.35-1h.35c.09,0,.09,0,.09.09a.27.27,0,0,0,.17-.09,1.9,1.9,0,0,1,.43-.26,25.31,25.31,0,0,1,2.69-1.21l.35-.17a.32.32,0,0,1,.26-.09v.09l-.09.09.78-.26a4.58,4.58,0,0,1,1.47-.35,7.94,7.94,0,0,0,1.39-.09,10.07,10.07,0,0,1,2.86.09,2.27,2.27,0,0,1,1.3.52,3,3,0,0,1,.69,1.3c.09.43.17.69.17.78a3,3,0,0,1-.09.78,6.15,6.15,0,0,1-.61,1.91c-.09.17-.17.26-.17.43l.09-.17a.27.27,0,0,0,.09-.17c.09,0,0,.17-.09.43s-.09.35-.17.35v-.17c0-.17,0-.17-.09.09s-.17.43-.09.43,0,.09-.09.09-.09.09-.26.35l-.26.52a.67.67,0,0,0-.09.26c.09.09,0,.09-.09.17l-.09.09c-.09,0-.09,0,0-.09v-.09a.66.66,0,0,0-.17.35,1.89,1.89,0,0,1-.43.69c-.17.35-.35.61-.43.78s-.17.26-.35.43c0,0-.26.35-.69,1a1.9,1.9,0,0,0-.26.43,1.2,1.2,0,0,1-.26.35.27.27,0,0,0-.09.17.3.3,0,0,0-.09.17v.09a.67.67,0,0,0-.26.09c-.09.09-.26.17-.35.35s-.17.17-.09.17.09,0,.17-.17v-.09c.09-.17.17-.26.26-.17a.27.27,0,0,1-.09.17c-.09.09-.52.61-1.3,1.47a6.4,6.4,0,0,1-1.39,1.21L81.8,20l.09-.09H81.8a1.6,1.6,0,0,0-.78.61,4.2,4.2,0,0,1-1.13.78c-.26.17-.52.26-.61.35s-.26.09-.43.17-.17.09-.26.09a.08.08,0,0,1-.09-.09.08.08,0,0,0-.09-.09c-.09,0-.17-.09-.26-.17a.66.66,0,0,1-.17-.35v-1a2.24,2.24,0,0,0-.09-1.3c-.09-.09,0-.35.09-.61l.52-1a1.66,1.66,0,0,1,.35-.69l.35-1a14.16,14.16,0,0,1,.78-2c.09-.17.26-.52.43-1s.35-.69.35-.78a16.55,16.55,0,0,1,1-2.43,1.51,1.51,0,0,0,.26-.61,2.35,2.35,0,0,1,.26-.69,5.38,5.38,0,0,0,.26-1l.17-.43A1.9,1.9,0,0,0,83,6.25c.09-.17.09-.26,0-.35a.3.3,0,0,1-.09-.17.08.08,0,0,0-.09-.09c-.09-.09-.17-.09-.35-.17s-.35-.09-.52-.17a1.93,1.93,0,0,0-.78.09c-.26.17-.52.17-.61.09a.86.86,0,0,0-.52.17,1.4,1.4,0,0,1-.61.35c-.17.09-.26.09-.26.17a.66.66,0,0,1-.35.17c-.17.09-.35.09-.35.17s-.09.09-.26.09-.26,0-.35.09v.09h.26c.17,0,.09.35-.26,1a2.6,2.6,0,0,1-.35.69,3.78,3.78,0,0,1-.43,1.13q-.26.52-.78,1.82c-.35,1-.52,1.39-.52,1.39H76c.17-.09.43-.52.78-1.47.17-.43.35-.61.43-.61s-.09.52-.35,1.47l-.26.78a6,6,0,0,1-.26.69.86.86,0,0,0-.09.35,5.24,5.24,0,0,1-.52,1.56A14.91,14.91,0,0,0,75,17.18c-.35,1-.52,1.56-.69,2-.09.26-.26.69-.52,1.39a1.47,1.47,0,0,1-.17.43c-.09.26-.17.35-.17.43s-.17.52-.43,1.3c-.09.09-.17.09-.17.17a5.53,5.53,0,0,1-.17.61,3.41,3.41,0,0,1-.17.52,5.78,5.78,0,0,1-.52,1,1.24,1.24,0,0,0-.17.61,1.47,1.47,0,0,1-.17.43c-.09.17-.17.26-.17.43a.52.52,0,0,1-.09.35c-.09.09-.17.17-.17.26s.09.09.17,0,.09,0,.09.09a.08.08,0,0,0,.09.09c-.26.69-.35,1-.17,1.13l.09.35a1.37,1.37,0,0,1,.09.35c.09,0,.09.09,0,.17v.09a.3.3,0,0,1,.09.17c0,.09.09.17.09.35v.43c.09-.09.09-.09.17.09a.78.78,0,0,1-.09.43v.17c0-.09.09-.09.17-.09s0,.09-.09.35c-.09.09-.09.17,0,.17s.17,0,.35-.17.17-.26.26-.26.09-.09.09,0v.17l.09-.17.26-.61.17-.35v.52c-.09.35-.09.52-.26.61l-.17.17.17-.09.17-.09c.09,0,.09.17,0,.43S73,32,73,32s.17.17.09.35a.66.66,0,0,0-.09.35c0,.17.35-.52,1-2l.61-1.3c.09-.26.09-.35,0-.09h0l-.17.35.09-.26c.17-.35.17-.61.09-.69a2.53,2.53,0,0,1,.17-.78,6,6,0,0,0,.26-.69l.35-.69c.43-.87.61-1.47.52-1.56s0-.09.09-.09.35.26.52.78.43.87.69.87h.35a.65.65,0,0,0,.43-.09,1.25,1.25,0,0,1,.78-.17,1.85,1.85,0,0,0,1-.35c.17-.09.43-.26.78-.43.09-.09.17-.09.26-.17l.17.17c.35.17.52.17.69.09s.09-.09.09,0,.09.17.26.09a2.21,2.21,0,0,0,.61-.17,1.51,1.51,0,0,1,.61-.26,1.47,1.47,0,0,0,.43-.17,9,9,0,0,1,1.91-.43,1.76,1.76,0,0,0,.43-.09q.13,0,0-.26c0-.09-.17-.17-.43-.09a3.25,3.25,0,0,1-.87.09,2.4,2.4,0,0,0-.78.09l-.26.09.26-.09a.54.54,0,0,1,.35-.17c0-.09.26-.17.78-.35.09,0,.26-.09.35-.09s.26-.09.35-.09H86c.17-.09.26-.09.35,0s0,.26-.09.61c-.09.09-.09.26-.26.43a1.47,1.47,0,0,0-.17.43l-.17.35h0a1,1,0,0,1-.26,1A5.06,5.06,0,0,0,84.66,28a4.65,4.65,0,0,1-.43,1c.09.09.17.09.26.17a2.35,2.35,0,0,0,.69.26h.17c.09,0,.17.09.26.09a.08.08,0,0,1,.09.09c0,.09.09.09.26.09q.91,0,1,.26c.09.09.09.09.17.09s.17-.09.26-.17a1.2,1.2,0,0,0,.26-.35q.13-.26.26-.26l.09-.52c.09-.35.17-.61.17-.61h.09v.43c-.09.26-.09.43,0,.43s.26-.35.43-1a24.73,24.73,0,0,1,1.39-3.64c.52-1,.78-1.56.87-1.73a.87.87,0,0,1,.43-.35A10.49,10.49,0,0,1,93,21.86c.17-.09.43-.09.69-.17a3.41,3.41,0,0,1,.52-.17c.09,0,.17-.09.26-.09s.09,0,.09-.09-.26-.09-.69.09l-.43.09a16.61,16.61,0,0,1,1.91-.61c1.21-.26,1.91-.43,2.08-.43,0,.09-.09.09-.26.17l-.35.17.43-.09h.35a.3.3,0,0,1,.09.17c0,.17,0,.26-.09.26s-.09.17-.09.35l-.26.87a2.61,2.61,0,0,0-.35,1.13,1.23,1.23,0,0,1-.17.52l-.09.09c0,.09-.09.09-.09.17s0,.09-.09.09-.09.26-.17.69-.26.78-.35,1a3.41,3.41,0,0,1-.17.52,3.41,3.41,0,0,0-.17.52.94.94,0,0,0-.09.43c0,.26.17.26.35.09h0v.17c.09.26.09.43.17.43s.09.09,0,.26v.09c.09,0,.09.09.09.17s.09.26.09.35,0,.26-.09.35v.17c.09-.09.09-.09.17.09s0,.35-.17.43v.17c0-.09.09-.09.17-.09s0,.17-.09.43-.09.26,0,.26a.48.48,0,0,0,.43-.17c.09-.17.17-.35.35-.35s.09-.09.09.09v.17l.09-.17.35-.69.17-.43v.52a4,4,0,0,1-.26.78l-.17.26.26-.09.26-.09c.09,0,.09.17,0,.43s-.09.43,0,.43a.51.51,0,0,1,.17.43.94.94,0,0,0-.09.43c0,.17.43-.61,1.13-2.26l.43-1,.09-.09v-.17l.17-.35c.09-.35.09-.35,0-.09h0c0,.09-.09.09-.09.17h0c.09-.09.09-.26.17-.35l.09-.09a.46.46,0,0,0,.26-.35c0-.17.09-.61.17-1.47.09-.26.26-.61.35-1a11.61,11.61,0,0,1,.78-2.78,12.77,12.77,0,0,0,.87-2.69c-.09,0-.09,0-.17.09a7.52,7.52,0,0,0,.26-1.13.75.75,0,0,1,.26-.52c.17-.26.26-.43.17-.52a2.77,2.77,0,0,1,.09-.61c.09-.35.17-.69.26-1a5.53,5.53,0,0,0,.17-.61.67.67,0,0,1,.09-.26c.09-.17.17-.43.26-.61a6,6,0,0,1,.26-.69c.09-.26.17-.69.35-1.3s.26-1,.35-1.13c.17-.52.43-1.13.69-1.73a10.94,10.94,0,0,0,.69-2,8.44,8.44,0,0,1,.52-1.3A2.33,2.33,0,0,0,106.44,5.55ZM2.86,4.94A.3.3,0,0,1,2.69,5V4.94c.09-.09.09-.09.17-.09S2.95,4.94,2.86,4.94Zm.61-.35a.45.45,0,0,1-.35.17c-.09,0,0-.09.17-.17C3.64,4.42,3.73,4.42,3.47,4.6Zm6.94-1.3c-.17,0-.61.09-1.3.17a7.91,7.91,0,0,0-1.39.26c-.09,0-.17.09-.17,0V3.64A3.48,3.48,0,0,1,8.93,3.3c.87-.09,1.47-.17,1.65-.17l.09.09C10.76,3.3,10.67,3.3,10.41,3.3Zm1.13,0c-.09,0-.09,0-.26-.09.09,0,.17-.09.35,0s.26,0,.26.09Zm1,0h-.35c-.09,0-.09,0,0-.09s.26-.09.52-.09h.43C13.1,3.21,12.93,3.3,12.49,3.3Zm.87,0h0l.17-.09a.32.32,0,0,1,.26.09Zm1,0h.35A.26.26,0,0,1,14.31,3.3Zm-12,16.48h0L2.26,20a.08.08,0,0,1-.09-.09C2.26,19.87,2.26,19.78,2.34,19.78Zm.43,11.45Zm.09-.09ZM3,30.8Zm.09-.09ZM10.5,15.61c0,.09,0,.17-.09.17s-.09-.09,0-.17a.3.3,0,0,1,.17-.09ZM27.15,24c.09.09.09.17,0,.43h0c-.09,0-.09-.17-.17-.43C27,23.94,27.07,23.94,27.15,24Zm5.9-1.73c-.35.09-.61.09-.87.17h.43a2.8,2.8,0,0,0,.52-.17.9.9,0,0,1,.35-.09C33.57,22.12,33.4,22.21,33.05,22.29Zm8.76-12c0,.09,0,.09-.09.09a.3.3,0,0,1-.09-.17C41.73,10.06,41.81,10.06,41.81,10.32Zm-6.59,7,.26-.26s0,.09-.17.35-.26.43-.26.26S35.13,17.52,35.22,17.35Zm-1.13,2.08c-.09,0-.17,0-.17-.09s.09-.17.26-.43.35-.43.52-.69a2.57,2.57,0,0,1,.26-.35,6.82,6.82,0,0,1-.35.78A1.48,1.48,0,0,1,34.09,19.43Zm4.16-.69c-.35,0-.52,0-.52.09s-.09.09-.17.09-.17,0-.17.09-.09.09-.35.09h-.35c-.09.09-.35.09-.87.09h-1c-.09.09-.17.09-.17-.09V19h.09c.09,0,.09-.09.09-.17a.75.75,0,0,1,.26-.52.08.08,0,0,1,.09-.09c.17-.17.17-.17.17,0,.09,0,.17-.09.26-.35a2.5,2.5,0,0,1,.52-.87c.17-.17.17-.26.17-.35a5.51,5.51,0,0,1,.87-1.3c.35-.43.87-1.13,1.65-2.17a1.83,1.83,0,0,1,.52-.69c.17-.17.52-.61,1.21-1.39l.09-.09c.78-.87,1-1,.87-.61v.17a.3.3,0,0,0,.09-.17,1.23,1.23,0,0,0,.17-.52A1.47,1.47,0,0,1,42,9.46q.13-.26.26-.26v.26c-.09.35-.35,1-.61,1.73s-.52,1.21-.52,1.21-.09-.09,0-.35V11.8a.27.27,0,0,0-.17.09,1.9,1.9,0,0,0-.26.78c0,.09-.09.35-.26,1a3,3,0,0,0-.09.78,2.72,2.72,0,0,1-.09.78c-.09,0-.09.09-.09.17s0,.17-.09.17a.3.3,0,0,0-.09.17c.09.09,0,.17-.09.17s-.09.09-.09.35-.09.52-.17,1a3.52,3.52,0,0,1-.26.87c-.09.17-.09.26-.17.35H39c-.17,0-.26,0-.26.09S38.6,18.74,38.26,18.74Zm.61,3.3c-.09,0-.09,0-.09-.09s.09-.17.17-.09,0,.17-.09.17Zm.09-.61.09-.09a.08.08,0,0,1,.09.09c0,.09,0,.09-.09.09S38.86,21.51,38.95,21.43ZM41,13.79c-.17.43-.26.61-.35.61s-.09,0,0-.09a.52.52,0,0,1,.09-.35,4,4,0,0,1,.26-.78c.09-.09.09-.17.09-.09A2.16,2.16,0,0,1,41,13.79Zm0,.78h0a.12.12,0,0,1,0-.17h0Zm-.17.61c-.09.09-.09.17-.17.35a1.52,1.52,0,0,1,.09-.43.45.45,0,0,1,.17-.35A1.16,1.16,0,0,1,40.86,15.18ZM38.17,30.36l.09-.26v.09C38.26,30.36,38.26,30.36,38.17,30.36Zm.43-.78h0c-.17,0-.17-.09-.17-.09s.09-.09.17,0Zm0-.26h0c-.09,0-.09-.09,0-.09a.08.08,0,0,1,.09-.09v.09A.08.08,0,0,0,38.6,29.32ZM51,18.3l.17.17c.09.09.09.17,0,.17s-.09-.09-.17-.17V18.3Zm11.36,4c-.35.09-.61.09-.87.17h.43a2.8,2.8,0,0,0,.52-.17.9.9,0,0,1,.35-.09C62.89,22.12,62.72,22.21,62.37,22.29Zm8.67-12c0,.09,0,.09-.09.09a.3.3,0,0,1-.09-.17C71,10.06,71,10.06,71,10.32Zm-6.59,7,.26-.26s0,.09-.17.35-.35.43-.35.35S64.37,17.52,64.45,17.35Zm-1.13,2.08c-.09,0-.17,0-.17-.09s.09-.17.26-.43.35-.43.52-.69a2.57,2.57,0,0,1,.26-.35,6.82,6.82,0,0,1-.35.78A1.12,1.12,0,0,1,63.33,19.43ZM68.18,22c-.09,0-.09,0-.09-.09s.09-.17.17-.09A.27.27,0,0,0,68.18,22Zm.09-.52c-.09,0-.09,0-.09-.09l.09-.09a.08.08,0,0,1,.09.09C68.36,21.51,68.36,21.51,68.27,21.51Zm1.82-6.33c-.09.09-.09.17-.17.35a1.52,1.52,0,0,1,.09-.43.45.45,0,0,1,.17-.35A1.16,1.16,0,0,1,70.09,15.18Zm.17-.61h0a.12.12,0,0,1,0-.17h0C70.35,14.4,70.35,14.49,70.27,14.57Zm0-.78c-.17.43-.26.61-.35.61s-.09,0,0-.09A.52.52,0,0,1,70,14a4,4,0,0,1,.26-.78c.09-.09.09-.17.09-.09A1,1,0,0,1,70.27,13.79Zm1.3-4c-.09.35-.35,1-.61,1.73s-.52,1.21-.52,1.21-.09-.09,0-.35v-.26a.27.27,0,0,0-.17.09A1.9,1.9,0,0,0,70,13c0,.09-.09.35-.26,1a3,3,0,0,0-.09.78c-.09.17-.09.26-.17.35s-.09.09-.09.17,0,.17-.09.17a.3.3,0,0,0-.09.17c.09.09,0,.17-.09.17s-.09.09-.09.35-.09.52-.17,1a3.52,3.52,0,0,1-.26.87c-.09.17-.09.26-.17.35h-.17c-.17,0-.26,0-.26.09s-.17.09-.52.09-.52,0-.52.09-.09.09-.17.09-.17,0-.17.09-.09.09-.35.09h-.35c-.09.09-.35.09-.87.09h-1c-.09.09-.17.09-.17-.09v-.09H64c.09,0,.09-.09.09-.17a.75.75,0,0,1,.26-.52.08.08,0,0,1,.09-.09c.17-.17.17-.17.17,0,.09,0,.17-.09.26-.35a2.5,2.5,0,0,1,.52-.87c.17-.17.17-.26.17-.35a5.51,5.51,0,0,1,.87-1.3c.35-.43.87-1.13,1.65-2.17a1.83,1.83,0,0,1,.52-.69c.17-.17.52-.61,1.21-1.39l.09-.09c.78-.87,1-1,.87-.61v.17a.3.3,0,0,0,.09-.17A1.23,1.23,0,0,0,71,9.8a1.47,1.47,0,0,1,.17-.43q.13-.26.26-.26V9.8Zm1.65,18.82h0c0,.09-.09.09,0,0C73.13,28.71,73.13,28.63,73.21,28.63Zm-.35,1,.09-.17v.09Zm.35-.69c0,.09-.09.09,0,0-.17,0-.17-.09-.17-.09s.09-.09.17,0Zm19-6.59c-.35.09-.61.09-.87.17h.43a2.8,2.8,0,0,0,.52-.17.9.9,0,0,1,.35-.09C92.73,22.12,92.56,22.21,92.21,22.29Zm8.76-12c0,.09,0,.09-.09.09a.3.3,0,0,1-.09-.17C100.89,10.06,101,10.06,101,10.32Zm-6.59,7,.26-.26s0,.09-.17.35-.35.43-.35.35S94.29,17.52,94.38,17.35Zm-1.13,2.08c-.09,0-.17,0-.17-.09s.09-.17.26-.43.35-.43.52-.69a2.57,2.57,0,0,1,.26-.35,6.82,6.82,0,0,1-.35.78A1.48,1.48,0,0,1,93.25,19.43Zm4.16-.69c-.35,0-.52,0-.52.09s-.09.09-.17.09-.17,0-.17.09-.09.09-.35.09h-.35c-.09.09-.35.09-.87.09H94c-.09.09-.17.09-.17-.09V19h.09c.09,0,.09-.09.09-.17a.75.75,0,0,1,.26-.52.08.08,0,0,1,.09-.09c.17-.17.17-.17.17,0,.09,0,.17-.09.26-.35a2.5,2.5,0,0,1,.52-.87c.17-.17.17-.26.17-.35a5.51,5.51,0,0,1,.87-1.3c.35-.43.87-1.13,1.65-2.17a1.83,1.83,0,0,1,.52-.69c.17-.17.52-.61,1.21-1.39l.09-.09c.78-.87,1-1,.87-.61v.17a.3.3,0,0,0,.09-.17,1.23,1.23,0,0,0,.17-.52,1.47,1.47,0,0,1,.17-.43q.13-.26.26-.26v.26c-.09.35-.35,1-.61,1.73s-.52,1.21-.52,1.21-.09-.09,0-.35V11.8a.27.27,0,0,0-.17.09,1.9,1.9,0,0,0-.26.78c0,.09-.09.35-.26,1a3,3,0,0,0-.09.78c-.09.17-.09.26-.17.35s-.09.09-.09.17,0,.17-.09.17a.3.3,0,0,0-.09.17c.09.09,0,.17-.09.17s-.09.09-.09.35-.09.52-.17,1a3.52,3.52,0,0,1-.26.87c-.09.17-.09.26-.17.35h-.17c-.17,0-.26,0-.26.09C97.94,18.74,97.76,18.74,97.42,18.74Zm2.69-4.94c-.17.43-.26.61-.35.61s-.09,0,0-.09a.52.52,0,0,1,.09-.35,4,4,0,0,1,.26-.78c.09-.09.09-.17.09-.09A.7.7,0,0,1,100.11,13.79Zm0,.78h0a.12.12,0,0,1,0-.17h0C100.19,14.4,100.19,14.49,100.11,14.57Zm-.09.61c-.09.09-.09.17-.17.35a1.52,1.52,0,0,1,.09-.43.45.45,0,0,1,.17-.35A1.16,1.16,0,0,1,100,15.18ZM97.76,28.63l.09-.17v.09C97.85,28.63,97.85,28.63,97.76,28.63Z"/><path class="cls-1" d="M4.94,26.63l-.17.43v.09l.17-.26c0-.09.09-.17,0-.26Z"/><path class="cls-1" d="M4.51,27.85Z"/><path class="cls-1" d="M1.65,32.53v.09h.17l-.17-.09C1.73,32.44,1.65,32.44,1.65,32.53Z"/><path class="cls-1" d="M4.42,28h0v0Z"/><path class="cls-1" d="M40.34,31.32l-.17.43v.09l.17-.26v-.26Z"/><polygon class="cls-1" points="38.34 35.74 38.34 35.74 38.34 35.74 38.34 35.83 38.34 35.83 38.52 35.48 38.43 35.48 38.34 35.74"/><polygon class="cls-1" points="38.6 35.31 38.52 35.31 38.52 35.39 38.69 35.05 38.6 35.31"/><polygon class="cls-1" points="38.34 35.83 38.34 35.91 38.26 35.91 38.26 35.91 38.26 35.91 38.26 36 38.26 36 38.34 35.83 38.34 35.83"/><path class="cls-1" d="M38.34,35.83Z"/><path class="cls-1" d="M38.52,35.48v0Z"/></g></g></svg>