<svg xmlns="http://www.w3.org/2000/svg" viewBox="0 0 41 38.5"><defs><style>.cls-1{fill:none;stroke:#00ff86;stroke-linecap:round;stroke-linejoin:round;}.cls-2{fill:#00ff86;}.cls-3{fill:#00f273;}</style></defs><title>Ресурс 6</title><g id="Слой_2" data-name="Слой 2"><g id="Layer_1" data-name="Layer 1"><path class="cls-1" d="M7,32.5H2.5a2,2,0,0,1-2-2V2.5a2,2,0,0,1,2-2h36a2,2,0,0,1,2,2v28a2,2,0,0,1-2,2H34"/><rect class="cls-2" x="0.5" y="5" width="40" height="1"/><rect class="cls-2" x="2.5" y="2.5" width="1" height="1" rx="0.5" ry="0.5"/><rect class="cls-2" x="4.5" y="2.5" width="1" height="1" rx="0.5" ry="0.5"/><rect class="cls-2" x="6.5" y="2.5" width="1" height="1" rx="0.5" ry="0.5"/><rect class="cls-2" x="8.5" y="10" width="24" height="1" rx="0.5" ry="0.5"/><rect class="cls-2" x="12.5" y="13" width="16" height="1" rx="0.5" ry="0.5"/><path class="cls-3" d="M27.5,20.5a2,2,0,0,1,2,2v13a2,2,0,0,1-2,2h-14a2,2,0,0,1-2-2v-13a2,2,0,0,1,2-2h14m0-1h-14a3,3,0,0,0-3,3v13a3,3,0,0,0,3,3h14a3,3,0,0,0,3-3v-13a3,3,0,0,0-3-3Z"/><rect class="cls-3" x="15.25" y="21.88" width="1.5" height="0.75" rx="0.37" ry="0.37"/><rect class="cls-3" x="24.25" y="21.88" width="1.5" height="0.75" rx="0.37" ry="0.37"/><rect class="cls-3" x="13.75" y="28.12" width="1.5" height="0.75" rx="0.37" ry="0.37"/><rect class="cls-3" x="16.75" y="28.12" width="1.5" height="0.75" rx="0.37" ry="0.37"/><rect class="cls-3" x="19.75" y="28.12" width="1.5" height="0.75" rx="0.37" ry="0.37"/><rect class="cls-3" x="22.75" y="28.12" width="1.5" height="0.75" rx="0.37" ry="0.37"/><rect class="cls-3" x="25.75" y="28.12" width="1.5" height="0.75" rx="0.37" ry="0.37"/><rect class="cls-3" x="10.5" y="24.37" width="20" height="0.75"/><rect class="cls-3" x="13.75" y="31.12" width="1.5" height="0.75" rx="0.37" ry="0.37"/><rect class="cls-3" x="16.75" y="31.12" width="1.5" height="0.75" rx="0.37" ry="0.37"/><rect class="cls-3" x="19.75" y="31.12" width="1.5" height="0.75" rx="0.37" ry="0.37"/><rect class="cls-3" x="22.75" y="31.12" width="1.5" height="0.75" rx="0.37" ry="0.37"/><rect class="cls-3" x="25.75" y="31.12" width="1.5" height="0.75" rx="0.37" ry="0.37"/><rect class="cls-3" x="13.75" y="34.12" width="1.5" height="0.75" rx="0.37" ry="0.37"/><rect class="cls-3" x="16.75" y="34.12" width="1.5" height="0.75" rx="0.37" ry="0.37"/><rect class="cls-3" x="19.75" y="34.12" width="1.5" height="0.75" rx="0.37" ry="0.37"/><rect class="cls-3" x="22.75" y="34.12" width="1.5" height="0.75" rx="0.37" ry="0.37"/></g></g></svg>