<svg xmlns="http://www.w3.org/2000/svg" viewBox="0 0 46.99 36"><defs><style>.cls-1{fill:#00ff86;}</style></defs><title>Ресурс 16</title><g id="Слой_2" data-name="Слой 2"><g id="Layer_1" data-name="Layer 1"><path class="cls-1" d="M41.49,1a2,2,0,0,1,2,2V31h-40V3a2,2,0,0,1,2-2h36m0-1h-36a3,3,0,0,0-3,3V32h42V3a3,3,0,0,0-3-3Z"/><path class="cls-1" d="M45.49,32a.41.41,0,0,1,.45.61l-.37,1.18A1.9,1.9,0,0,1,43.95,35H3a1.9,1.9,0,0,1-1.64-1.21L1,32.61a.53.53,0,0,1,0-.46A.53.53,0,0,1,1.49,32h44m0-1h-44A1.39,1.39,0,0,0,.09,32.91l.37,1.18A2.89,2.89,0,0,0,3,36h40.9a2.89,2.89,0,0,0,2.59-1.91l.37-1.18A1.39,1.39,0,0,0,45.49,31Z"/><path class="cls-1" d="M18.84,12.12a.48.48,0,0,0-.65,0L12.62,17.7a.41.41,0,0,0,0,.59l5.57,5.57a.48.48,0,0,0,.65,0,.42.42,0,0,0,0-.61L13.58,18l5.28-5.27A.42.42,0,0,0,18.84,12.12Zm15.53,5.59-5.57-5.57a.48.48,0,0,0-.65,0,.42.42,0,0,0,0,.61L33.4,18l-5.28,5.27a.42.42,0,0,0,0,.61.48.48,0,0,0,.65,0l5.57-5.57A.41.41,0,0,0,34.37,17.71Zm-8.47-5.6a.47.47,0,0,0-.59.25l-4.47,11a.43.43,0,0,0,.26.56l.16,0a.46.46,0,0,0,.43-.28l4.47-11A.42.42,0,0,0,25.89,12.1Z"/><rect class="cls-1" x="3.49" y="4.5" width="40" height="1"/><rect class="cls-1" x="5.49" y="2.25" width="1" height="1" rx="0.5" ry="0.5"/><rect class="cls-1" x="7.49" y="2.25" width="1" height="1" rx="0.5" ry="0.5"/><rect class="cls-1" x="9.49" y="2.25" width="1" height="1" rx="0.5" ry="0.5"/></g></g></svg>