<svg xmlns="http://www.w3.org/2000/svg" viewBox="0 0 48 32"><defs><style>.cls-1{fill:#00ff86;}</style></defs><title>Ресурс 26</title><g id="Слой_2" data-name="Слой 2"><g id="Layer_1" data-name="Layer 1"><path class="cls-1" d="M3.35,31.88A3.55,3.55,0,0,1,.12,28.65V3.48A3.38,3.38,0,0,1,3.33.13H44.6a3.36,3.36,0,0,1,3.27,3.25V28.71c-.06,1.28-1.46,2.65-3.25,3.17Zm13.85-1.08H44.67a2.42,2.42,0,0,0,2.12-2.06V16.54H31.91q-7.06,0-14.12,0h-.22l.11.19c1,1.76,2.25,3.45,3.53,5.25.84,1.18,1.7,2.39,2.58,3.69a.55.55,0,0,1,.12.43.54.54,0,0,1-.21.37.51.51,0,0,1-.3.09.56.56,0,0,1-.48-.25c-1.83-2.59-3.62-5.14-5.48-7.94L17.21,18Zm-16-2.12a2.48,2.48,0,0,0,2.13,2.12H16.12V18.06l-.23.35c-1.39,2.11-2.68,4-4.06,5.91l-1.4,2a.57.57,0,0,1-.49.26.51.51,0,0,1-.3-.09.57.57,0,0,1-.1-.79c1.81-2.54,4.14-5.86,6.13-9l.12-.19H1.21Zm9.69-22a1.83,1.83,0,0,0-.83.2,3.56,3.56,0,0,0-.86,2.48c-.09,2,1.29,3.15,2.49,3.94a21.83,21.83,0,0,0,2.39,1.26c.61.29,1.24.59,1.85.93l.19.1v-.21a8.78,8.78,0,0,0-1.42-5.57A9.17,9.17,0,0,0,12,6.89,3.11,3.11,0,0,0,10.9,6.63Zm11.5,0a2.22,2.22,0,0,0-1.06.3,9.19,9.19,0,0,0-2.69,2.88,9.09,9.09,0,0,0-1.44,5.58l0,.17.15-.06a18.29,18.29,0,0,0,4.3-2.18,5,5,0,0,0,2.45-4,3,3,0,0,0-.73-2.39A2.11,2.11,0,0,0,22.4,6.59Zm0-1.07A2.83,2.83,0,0,1,24.09,6a3.87,3.87,0,0,1,1.11,3.27,6.21,6.21,0,0,1-2.91,4.84,15.86,15.86,0,0,1-1.78,1.07l-.44.24H46.79V3.38A2.44,2.44,0,0,0,44.6,1.21H17.21v8.84l.23-.38a11.79,11.79,0,0,1,3.4-3.75A3.62,3.62,0,0,1,22.44,5.51ZM3.33,1.21A2.49,2.49,0,0,0,1.21,3.48v12H13.48L13,15.22a17,17,0,0,1-1.9-1.05c-2.05-1.35-3-3-3-4.91A4.38,4.38,0,0,1,9.33,6,3.23,3.23,0,0,1,11,5.55a3.52,3.52,0,0,1,1.53.38,11.12,11.12,0,0,1,3.37,3.75l.23.36V1.21ZM29.46,26.56V25.48H43.21v1.08Z"/><path class="cls-1" d="M44.6.25a3.23,3.23,0,0,1,3.15,3.13V28.7c-.06,1.24-1.41,2.54-3.14,3.05H3.36A3.42,3.42,0,0,1,.25,28.67V3.48A3.25,3.25,0,0,1,3.33.25H44.6M17.08,10.5l.46-.77A11.68,11.68,0,0,1,20.88,6a3.51,3.51,0,0,1,1.56-.4A2.7,2.7,0,0,1,24,6.13,3.75,3.75,0,0,1,25.08,9.3,6.09,6.09,0,0,1,22.23,14a15.82,15.82,0,0,1-1.76,1.07l-.89.47H46.92V3.38A2.58,2.58,0,0,0,44.6,1.08H17.08V10.5m-16,5.08H14l-1-.47a17,17,0,0,1-1.89-1c-2-1.33-3-2.94-2.91-4.8A4.29,4.29,0,0,1,9.38,6.15,3.11,3.11,0,0,1,11,5.67,3.38,3.38,0,0,1,12.46,6a11,11,0,0,1,3.33,3.71l.46.72V1.08H3.33a2.63,2.63,0,0,0-2.25,2.4v12.1m16,.11.31-.12.06,0a18.14,18.14,0,0,0,4.26-2.17,5.26,5.26,0,0,0,2.5-4.11,3.06,3.06,0,0,0-.78-2.49l0,0h0a2.23,2.23,0,0,0-1-.27,2.33,2.33,0,0,0-1.11.32A9.15,9.15,0,0,0,18.54,9.7a9.2,9.2,0,0,0-1.45,5.66l0,.33m-.87.07v-.42A8.88,8.88,0,0,0,14.81,9.7,9.11,9.11,0,0,0,12,6.77,3.2,3.2,0,0,0,10.9,6.5a2,2,0,0,0-.88.21h0l0,0A3.73,3.73,0,0,0,9.08,9.3c-.09,2,1.32,3.24,2.55,4.05A21.88,21.88,0,0,0,14,14.63c.61.29,1.24.59,1.84.93l.37.2m7.15,10.7a.44.44,0,0,1-.38-.21c-1.82-2.58-3.61-5.12-5.48-7.93l-.46-.69V30.92H44.72a2.56,2.56,0,0,0,2.19-2.2V16.42H31.83q-7,0-14,0h-.44l.22.38c1,1.76,2.26,3.46,3.54,5.26.84,1.17,1.7,2.39,2.59,3.71a.45.45,0,0,1-.08.61.39.39,0,0,1-.23.07m-20,4.46h12.9V17.64l-.46.7c-1.38,2.11-2.68,4-4,5.9l-1.42,2a.44.44,0,0,1-.37.19.39.39,0,0,1-.23-.07.41.41,0,0,1-.16-.29.42.42,0,0,1,.09-.33c1.66-2.33,4.1-5.8,6.13-9l.25-.38h-15V28.73a2.59,2.59,0,0,0,2.26,2.19M43.08,25.6v.83H29.58V25.6h13.5M44.6,0H3.33A3.5,3.5,0,0,0,0,3.48V28.67A3.66,3.66,0,0,0,3.35,32H44.65c1.76-.51,3.28-1.86,3.35-3.29V3.38A3.47,3.47,0,0,0,44.6,0ZM17.33,9.6V1.33H44.6a2.33,2.33,0,0,1,2.06,2v12H20.58a15.84,15.84,0,0,0,1.79-1.08,6.38,6.38,0,0,0,3-4.94,4,4,0,0,0-1.17-3.37,3,3,0,0,0-1.72-.55,3.74,3.74,0,0,0-1.67.42A11.79,11.79,0,0,0,17.33,9.6Zm-16,5.73V3.48a2.37,2.37,0,0,1,2-2.15H16V9.6a11.17,11.17,0,0,0-3.42-3.79A3.61,3.61,0,0,0,11,5.42a3.38,3.38,0,0,0-1.75.52A4.52,4.52,0,0,0,8,9.25c-.1,2.32,1.38,3.94,3,5a17.22,17.22,0,0,0,1.92,1.06Zm16,0a8.88,8.88,0,0,1,1.42-5.5A9,9,0,0,1,21.4,7a2.08,2.08,0,0,1,1-.29,2,2,0,0,1,.92.25A2.81,2.81,0,0,1,24,9.25a4.94,4.94,0,0,1-2.4,3.92,18.15,18.15,0,0,1-4.27,2.17Zm-1.33,0c-1.46-.8-3-1.41-4.23-2.19-1.46-1-2.51-2.09-2.44-3.83a3.48,3.48,0,0,1,.79-2.37,1.71,1.71,0,0,1,.77-.18A2.94,2.94,0,0,1,12,7,9,9,0,0,1,14.6,9.83a8.64,8.64,0,0,1,1.4,5.5Zm7.4,11.37a.64.64,0,0,0,.37-.11.69.69,0,0,0,.13-1c-2.21-3.3-4.38-6-6.1-8.94q7,0,14,0H46.67v12a2.31,2.31,0,0,1-2,2H17.33V18.46c1.81,2.72,3.53,5.18,5.48,7.94a.69.69,0,0,0,.59.31Zm-20,4a2.34,2.34,0,0,1-2-2v-12H15.58c-2,3.08-4.31,6.4-6.12,9a.69.69,0,0,0,.13,1,.64.64,0,0,0,.37.11.69.69,0,0,0,.59-.31c2-2.82,3.62-5.11,5.46-7.92V30.67Zm40-5.31h-14v1.33h14V25.35Z"/></g></g></svg>