<svg xmlns="http://www.w3.org/2000/svg" viewBox="0 0 120.27 43.81"><defs><style>.cls-1{fill:#00ff86;}</style></defs><title>Ресурс 22</title><g id="Слой_2" data-name="Слой 2"><g id="Layer_1" data-name="Layer 1"><path class="cls-1" d="M118,2h0L100.52,19.75,99.18,21.1l1.29,1.4,17.8,19.3H2V2H118m0-2H2A2,2,0,0,0,0,2V41.81a2,2,0,0,0,2,2H118.27a2,2,0,0,0,1.47-3.36l-17.8-19.3L119.47,3.41A2,2,0,0,0,118,0Z"/><path class="cls-1" d="M22.31,17.17a5.17,5.17,0,1,1-5.17,5.17,5.17,5.17,0,0,1,5.17-5.17m0-2a7.17,7.17,0,1,0,7.17,7.17,7.17,7.17,0,0,0-7.17-7.17Z"/></g></g></svg>